<svg height="167" viewBox="0 0 98 166.808" width="98" xmlns="http://www.w3.org/2000/svg"><path d="m92.9 161.8-44-42-44 42v-156.8h88z" fill="#e0719e"/><path d="m92.9 166.8a5.179 5.179 0 0 1 -3.5-1.4l-40.5-38.7-40.5 38.7a4.915 4.915 0 0 1 -5.4 1 5.053 5.053 0 0 1 -3-4.6v-156.8a4.951 4.951 0 0 1 5-5h88a4.951 4.951 0 0 1 5 5v156.8a5.053 5.053 0 0 1 -3 4.6 5.923 5.923 0 0 1 -2.1.4zm-44-52a5.372 5.372 0 0 1 3.5 1.4l35.5 33.9v-140.1h-78v140.1l35.5-33.9a5.179 5.179 0 0 1 3.5-1.4z" fill="#383a48"/></svg>