<svg xmlns="http://www.w3.org/2000/svg" version="1.1" viewBox="0 0 3000 3000" width="3000" height="3000">
<defs/><!--ITEM: Illustration component 1--><g transform="translate(100.0 228.0) rotate(89.9999999999999 1211.0 1144.0)  scale(3.0275 3.0264550264550265)"><svg width="800.0" height="756.0" viewBox="0.0 0.0 800.0 756.0"><clipPath id="a-i1"><path d="m0 0h800v756h-800z" fill="#000000"/></clipPath><g clip-path="url(#a-i1)"><path d="m681.823 151.722c-225.639-126.883-547.708-226.47-648.9569-76.155-114.378 169.801 104.6139 297.349 128.4619 472.758 26.174 192.568 245.997 283.514 410.023 129.708 205.697-192.9 335.488-399.76 110.472-526.311z" fill="#fece2f"/></g></svg></g><!--ITEM: Illustration component 2--><g transform="translate(666.0 392.0) rotate(0.0 999.0 788.0)  scale(3.4388984509466436 3.441048034934498)"><svg width="581.0" height="458.0" viewBox="0.0 0.0 581.0 458.0"><clipPath id="a-i2"><path d="m0 0h581v458h-581z" fill="#000000"/></clipPath><g clip-path="url(#a-i2)"><path d="m570.657 457h-560.314c-1.09358.006-2.17751-.205-3.18948-.619-1.01197-.415-1.93204-1.025-2.70732-1.797-.77529-.771-1.39051-1.688-1.81031-2.698-.4198-1.009-.6359-2.092-.63589-3.186v-438.3949c-.00067-1.09401.21494-2.17737.63445-3.18776s1.03462-1.92789 1.80998-2.69971c.77535-.77182 1.69564-1.38274 2.70794-1.79763 1.01229-.41489 2.09663-.62556 3.19063-.61989h560.314c1.094-.00567 2.178.205 3.191.61989 1.012.41489 1.932 1.02581 2.708 1.79763.775.77182 1.39 1.68932 1.81 2.69971.419 1.01039.635 2.09375.634 3.18776v438.4949c-.022 2.193-.912 4.288-2.476 5.825s-3.674 2.391-5.867 2.375z" fill="#fff"/><path d="m578.7 30.4485v-19.5c.003-1.09075-.21-2.17124-.626-3.17943s-1.028-1.92422-1.799-2.69548c-.771-.77125-1.687-1.38252-2.695-1.7987-1.009-.41618-2.089-.62907-3.18-.62643h-559.8998c-1.09069-.00264-2.17118.21025-3.17937.62643s-1.92423 1.02745-2.69548 1.7987c-.77125.77126-1.38252 1.68729-1.7987 2.69548s-.62907 2.08868-.62643 3.17943v19.5z" fill="#fece2f"/><g fill="#1a1a1a"><path d="m566.621 16.5005 4.94-4.939c.281-.2814.439-.6631.439-1.061 0-.398-.158-.77962-.439-1.06102-.281-.28139-.663-.43948-1.061-.43948s-.78.15809-1.061.43948l-4.939 4.94002-4.939-4.94002c-.281-.28139-.663-.43948-1.061-.43948s-.78.15809-1.061.43948c-.281.2814-.439.66302-.439 1.06102 0 .3979.158.7796.439 1.061l4.94 4.939-4.94 4.939c-.281.2814-.439.663-.439 1.061 0 .3979.158.7796.439 1.061s.663.4395 1.061.4395.78-.1581 1.061-.4395l4.939-4.94 4.939 4.94c.281.2814.663.4395 1.061.4395s.78-.1581 1.061-.4395.439-.6631.439-1.061c0-.398-.158-.7796-.439-1.061z"/><path d="m571.072.00012805h-561.144c-2.61603-.01331115-5.13051 1.01166195-6.99175 2.85002195-1.86124 1.83837-2.9172156 4.33998-2.93625 6.95598v438.38787c.0190344 2.616 1.07501 5.118 2.93625 6.956s4.37572 2.863 6.99175 2.85h561.144c2.602.027 5.108-.98 6.969-2.798s2.925-4.3 2.959-6.902v-438.49387c-.019-2.616-1.075-5.11761-2.936-6.95598-1.862-1.83836-4.376-2.8633331-6.992-2.85002195zm-561.144 3.00000195h561.144c1.821-.01413 3.573.69451 4.871 1.97044 1.299 1.27594 2.039 3.01496 2.057 4.83556v20.19397h-575v-20.19397c.01822-1.8206.75787-3.55962 2.05667-4.83556 1.29881-1.27593 3.0507-1.98457 4.87133-1.97044zm568.072 29.99997v55h-575v-55zm-6.928 421.9999h-561.144c-1.82063.014-3.57252-.694-4.87133-1.97-1.2988-1.276-2.03845-3.015-2.05667-4.836v-357.1939h575v357.2999c-.033 1.806-.781 3.526-2.08 4.782-1.298 1.256-3.042 1.945-4.848 1.918z"/><path d="m544.5 24h-6c-1.193-.0013-2.337-.4759-3.181-1.3195-.843-.8436-1.318-1.9874-1.319-3.1805v-6c.001-1.1931.476-2.3369 1.319-3.1805.844-.84365 1.988-1.31818 3.181-1.3195h6c1.193.00132 2.337.47585 3.181 1.3195.843.8436 1.318 1.9874 1.319 3.1805v6c-.001 1.1931-.476 2.3369-1.319 3.1805-.844.8436-1.988 1.3182-3.181 1.3195zm-6-12c-.398 0-.779.158-1.061.4393-.281.2813-.439.6629-.439 1.0607v6c0 .3978.158.7794.439 1.0607.282.2813.663.4393 1.061.4393h6c.398 0 .779-.158 1.061-.4393.281-.2813.439-.6629.439-1.0607v-6c0-.3978-.158-.7794-.439-1.0607-.282-.2813-.663-.4393-1.061-.4393z"/><path d="m524.5 24h-12c-.398 0-.779-.158-1.061-.4393-.281-.2813-.439-.6629-.439-1.0607s.158-.7794.439-1.0607c.282-.2813.663-.4393 1.061-.4393h12c.398 0 .779.158 1.061.4393.281.2813.439.6629.439 1.0607s-.158.7794-.439 1.0607c-.282.2813-.663.4393-1.061.4393z"/><path d="m512.5 76h-366c-1.458-.0019-2.856-.5819-3.887-1.613-1.031-1.031-1.611-2.4289-1.613-3.887v-20c.002-1.4581.582-2.856 1.613-3.887 1.031-1.0311 2.429-1.6111 3.887-1.613h366c1.458.0019 2.856.5819 3.887 1.613 1.031 1.031 1.611 2.4289 1.613 3.887v20c-.002 1.4581-.582 2.856-1.613 3.887-1.031 1.0311-2.429 1.6111-3.887 1.613zm-366-28c-.663 0-1.299.2634-1.768.7322-.469.4689-.732 1.1048-.732 1.7678v20c0 .663.263 1.2989.732 1.7678.469.4688 1.105.7322 1.768.7322h366c.663 0 1.299-.2634 1.768-.7322.469-.4689.732-1.1048.732-1.7678v-20c0-.663-.263-1.2989-.732-1.7678-.469-.4688-1.105-.7322-1.768-.7322z"/><path d="m57.5 74.0006c-.3067.0004-.6061-.0932-.8579-.2682-.2519-.175-.444-.423-.5506-.7105-.1065-.2876-.1224-.6009-.0454-.8978.0769-.2968.243-.5629.4759-.7625l12.673-10.861-12.672-10.861c-.3021-.2591-.4889-.6276-.5192-1.0244-.0304-.3969.0981-.7895.3572-1.0916s.6276-.4888 1.0244-.5192c.3969-.0304.7895.0981 1.0916.3572l14 12c.1643.1408.2962.3155.3867.5122.0904.1966.1372.4104.1372.6268s-.0468.4303-.1372.6269c-.0905.1966-.2224.3713-.3867.5121l-14 12c-.2721.2332-.6187.3612-.977.361z"/><path d="m33.4999 74.0006c-.358.0005-.7044-.1276-.976-.361l-14-12c-.1643-.1408-.2962-.3155-.3866-.5121-.0905-.1966-.1373-.4105-.1373-.6269s.0468-.4302.1373-.6268c.0904-.1967.2223-.3714.3866-.5122l14-12c.1496-.1283.323-.2259.5103-.2872s.3848-.0851.5813-.07c.1965.015.3881.0686.5639.1577.1757.0891.3322.2119.4605.3615s.2259.323.2872.5103.0851.3848.0701.5813c-.0151.1965-.0687.3881-.1577.5638-.0891.1758-.212.3323-.3616.4606l-12.673 10.861 12.672 10.861c.2328.1995.3989.4656.4759.7623.077.2968.0612.61-.0452.8975-.1065.2875-.2984.5355-.5501.7106s-.551.2688-.8576.2686z"/><path d="m118 59.0004c-.398 0-.779.158-1.061.4393-.281.2813-.439.6629-.439 1.0607.015 2.1458-.655 4.2403-1.914 5.9781-1.259 1.7379-3.04 3.0283-5.083 3.683-2.044.6548-4.243.6396-6.277-.0432s-3.7972-1.9976-5.0318-3.7526c-1.2347-1.755-1.8764-3.8586-1.8316-6.0039.0447-2.1454.7736-4.2203 2.0803-5.9223 1.3067-1.7021 3.1231-2.9422 5.1841-3.5396s4.259-.5209 6.273.2185l-2.879.959c-.377.126-.689.3967-.867.7527-.178.3559-.207.7679-.081 1.1453s.397.6893.753.8671.768.2069 1.145.0809l6-2c.204-.068.391-.179.548-.3255s.281-.3251.363-.5236c.083-.1986.121-.4125.114-.6273-.008-.2148-.062-.4254-.158-.6176l-3-6c-.178-.3559-.49-.6266-.867-.7524-.378-.1258-.79-.0966-1.146.0814s-.626.49-.752.8675-.097.7896.081 1.1455l.923 1.846c-2.619-.7483-5.408-.6544-7.971.2685-2.5626.9229-4.7706 2.6282-6.3116 4.8746-1.5409 2.2464-2.3367 4.9204-2.2749 7.6438s.978 5.3585 2.6193 7.5327c1.6412 2.1742 3.9242 3.7776 6.5262 4.5833 2.603.8057 5.392.7731 7.975-.0933s4.828-2.5226 6.418-4.7346c1.59-2.2121 2.444-4.8679 2.442-7.592 0-.3978-.158-.7794-.439-1.0607-.282-.2813-.663-.4393-1.061-.4393z"/><path d="m564.061 71.939-8.45-8.449c1.785-2.3241 2.62-5.2405 2.334-8.1573-.286-2.9167-1.671-5.6155-3.874-7.5485s-5.059-2.9556-7.988-2.8601-5.712 1.3018-7.785 3.3742c-2.072 2.0723-3.278 4.8555-3.374 7.7847-.095 2.9293.927 5.7851 2.86 7.988s4.632 3.5879 7.549 3.8739 5.833-.5484 8.157-2.3339l8.449 8.45c.281.2814.663.4395 1.061.4395s.78-.1581 1.061-.4395.439-.6631.439-1.061c0-.398-.158-.7796-.439-1.061zm-26.061-15.439c0-1.6811.498-3.3245 1.432-4.7224.934-1.3978 2.262-2.4872 3.815-3.1306 1.553-.6433 3.262-.8117 4.911-.4837s3.164 1.1375 4.352 2.3263c1.189 1.1887 1.999 2.7033 2.327 4.3521.328 1.6489.159 3.3579-.484 4.9111s-1.733 2.8807-3.131 3.8147-3.041 1.4325-4.722 1.4325c-2.254-.0027-4.414-.899-6.008-2.4925-1.593-1.5935-2.489-3.754-2.492-6.0075z"/></g></g></svg></g><!--ITEM: Illustration component 3--><g transform="translate(1808.0 1300.0) rotate(0.0 277.0 260.0)  scale(3.325609595044001 3.315924728508663)"><svg width="166.586" height="156.819" viewBox="0.0 0.0 166.586 156.819"><g fill="#1a1a1a"><path d="m49.722 51.954c-.589 0-1.147-.349-1.387-.927-.316-.766.047-1.643.813-1.959l9.156-3.785c.767-.319 1.643.047 1.959.813s-.047 1.643-.813 1.959l-9.156 3.785c-.187.078-.382.114-.572.114z"/><path d="m121.017 27.538c-.088 0-.178-.008-.268-.023-.815-.147-1.357-.928-1.21-1.743l1.343-7.447c.147-.814.931-1.347 1.742-1.21.815.147 1.357.928 1.21 1.743l-1.343 7.447c-.13.724-.762 1.233-1.474 1.233z"/><path d="m114.789 80.032c-.344 0-.69-.118-.973-.358-.63-.537-.706-1.484-.168-2.114l6.348-7.447c.538-.632 1.484-.705 2.115-.169.63.537.706 1.484.168 2.114l-6.348 7.447c-.297.348-.718.527-1.142.527z"/><path d="m66.202 28.637h-12.208c-.829 0-1.5-.672-1.5-1.5s.671-1.5 1.5-1.5h12.208c.829 0 1.5.672 1.5 1.5s-.671 1.5-1.5 1.5z"/><path d="m143.844 86.624c-.173 0-.348-.029-.52-.093-.777-.287-1.174-1.149-.888-1.927l2.93-7.935c.287-.777 1.152-1.176 1.927-.888.777.287 1.174 1.149.888 1.927l-2.93 7.935c-.223.606-.797.981-1.407.981z"/><path d="m53.385 101.884c-.514 0-1.015-.265-1.294-.739-.42-.714-.182-1.634.532-2.054l8.301-4.883c.714-.421 1.633-.182 2.054.532.42.714.182 1.634-.532 2.054l-8.301 4.883c-.24.14-.502.207-.76.207z"/><path d="m133.347 37.183c-.098 0-.196-.009-.296-.029-.812-.162-1.339-.952-1.176-1.765l2.442-12.208c.162-.812.947-1.348 1.765-1.177.812.162 1.339.952 1.176 1.765l-2.442 12.208c-.143.712-.769 1.206-1.469 1.206z"/><path d="m50.332 145.832c-.558 0-1.094-.313-1.353-.85-.359-.746-.045-1.643.701-2.002.638-.308 63.853-31.211 63.853-71.896 0-37.128-16.137-46.201-16.3-46.288-.73-.392-1.005-1.301-.614-2.03.391-.73 1.299-1.008 2.031-.614.73.392 17.883 10.026 17.883 48.933 0 42.57-62.875 73.311-65.552 74.599-.209.1-.43.148-.649.148z"/><path d="m87.077 151.85c-18.577 0-36.2-5.756-37.218-6.094-.786-.262-1.212-1.11-.951-1.896.261-.784 1.111-1.207 1.896-.951.337.111 33.964 11.087 56.511 2.824 19.583-7.24 35.518-30.761 35.518-52.429 0-15.689-6.103-39.03-22.916-39.03-.829 0-1.5-.672-1.5-1.5s.671-1.5 1.5-1.5c19.014 0 25.916 25.136 25.916 42.03 0 22.82-16.814 47.603-37.481 55.244-6.614 2.423-14.019 3.302-21.275 3.302z"/><path d="m50.329 145.832c-.722 0-1.358-.522-1.479-1.258-.05-.309-1.24-7.691-1.24-18.554 0-6.974 1.207-25.488 12.38-46.737 10.905-20.737 27.546-37.086 49.462-48.592.735-.387 1.641-.102 2.025.631.385.733.103 1.641-.631 2.025-58.546 30.737-60.237 86.424-60.237 92.673 0 10.6 1.189 17.996 1.201 18.069.133.817-.421 1.589-1.238 1.723-.08.013-.162.02-.243.02z"/><path d="m50.33 145.832c-.301 0-.604-.09-.869-.278-.675-.48-.832-1.417-.352-2.092.285-.4 28.643-40.455 37.621-72.778.222-.799 1.051-1.26 1.847-1.044.798.222 1.266 1.049 1.044 1.847-9.121 32.835-37.78 73.311-38.068 73.716-.292.41-.754.629-1.223.629z"/><path d="m50.332 145.832c-.457 0-.909-.208-1.203-.603-.511-.685-12.505-16.972-12.505-35.567 0-16.612 6.932-36.415 39.955-36.415 23.573 0 36.292 17.756 36.292 34.462 0 .828-.671 1.5-1.5 1.5s-1.5-.672-1.5-1.5c0-12.164-9.039-31.462-33.292-31.462-24.521 0-36.955 11.242-36.955 33.415 0 17.609 11.791 33.613 11.91 33.772.496.664.359 1.604-.305 2.1-.27.201-.585.298-.897.298z"/><path d="m50.33 145.832c-.231 0-.465-.053-.685-.166-.35-.18-34.996-18.394-34.996-52.606 0-24.548 18.933-38.124 32.02-38.124 11.256 0 19.914 4.873 20.277 5.08.719.411.968 1.326.558 2.045s-1.326.972-2.045.561c-.083-.047-8.36-4.686-18.79-4.686-11.861 0-29.02 12.508-29.02 35.124 0 32.361 33.035 49.767 33.369 49.938.736.38 1.026 1.284.647 2.021-.266.516-.791.813-1.335.813z"/><path d="m50.329 145.832c-.76 0-1.411-.575-1.49-1.348-.084-.824.516-1.561 1.34-1.645.306-.031 30.789-3.376 46.189-24.3 7.462-10.097 12.282-26.566 12.282-41.962 0-8.33-1.391-22.305-10.708-22.305-4.273 0-5.825 3.483-5.825 5.824 0 2.796 3.42 4.604 4.604 4.604.829 0 1.5.672 1.5 1.5s-.671 1.5-1.5 1.5c-2.611 0-7.604-2.962-7.604-7.604 0-4.277 3.093-8.824 8.825-8.824 8.84 0 13.708 8.986 13.708 25.305 0 15.996-5.051 33.166-12.868 43.742-16.198 22.01-46.996 25.372-48.299 25.504-.051.006-.103.009-.154.009z"/><path d="m50.697 145.831c-.411 0-.821-.168-1.117-.498-.481-.539-11.834-13.525-15.023-43.57-3.244-30.57 16.851-59.057 24.538-65.975.616-.554 1.565-.506 2.118.112.554.615.504 1.563-.111 2.118-7.087 6.378-26.645 34.373-23.562 63.428 3.076 28.982 14.166 41.762 14.277 41.888.549.618.495 1.565-.122 2.116-.286.256-.643.381-.998.381z"/><path d="m50.33 145.832c-.33 0-.662-.108-.939-.331-.299-.24-29.859-24.453-29.859-62.696 0-28.105 23.758-62.051 53.262-62.051 21.27 0 25.21 12.747 25.368 13.289.231.796-.227 1.628-1.022 1.858-.796.233-1.624-.224-1.857-1.017-.148-.486-3.624-11.131-22.488-11.131-27.842 0-50.262 32.305-50.262 59.051 0 36.822 28.452 60.127 28.739 60.358.646.52.748 1.463.229 2.109-.297.37-.732.561-1.171.561z"/><path d="m50.331 145.832c-.825 0-1.496-.666-1.5-1.492-.004-.828.664-1.503 1.492-1.508.681-.004 68.322-.738 93.574-32.037 10.316-12.726 12.715-29.845 6.583-46.971-7.681-21.451-26.504-38.151-47.956-42.543-.812-.166-1.335-.959-1.169-1.771s.954-1.332 1.771-1.169c22.456 4.599 42.152 22.054 50.178 44.472 6.494 18.135 3.915 36.312-7.075 49.868-26.147 32.408-93.055 33.136-95.891 33.15-.001.001-.004.001-.007.001z"/><path d="m11.754 67.702c-.805 0-1.471-.639-1.498-1.45-.011-.257-.351-6.485-6.967-9.687-.746-.361-1.058-1.258-.697-2.004.361-.745 1.26-1.056 2.003-.697 8.289 4.011 8.647 11.952 8.659 12.288.028.828-.621 1.521-1.449 1.549-.017.001-.034.001-.051.001z"/><path d="m143.112 147.053c-.384 0-.768-.146-1.061-.439-.837-.837-4.15-2.002-6.264-2.002-3.629.11-6.125 1.101-6.15 1.11-.769.309-1.641-.06-1.953-.826-.311-.766.055-1.639.82-1.952.12-.049 2.985-1.202 7.237-1.331h.002c2.591 0 6.807 1.258 8.429 2.88.586.586.586 1.535 0 2.121-.293.292-.677.439-1.06.439z"/><path d="m155.931 112.871c-.44 0-.876-.192-1.172-.563-.518-.647-.413-1.591.234-2.108l9.156-7.325c.646-.519 1.591-.412 2.108.233.518.647.413 1.591-.234 2.108l-9.156 7.325c-.276.223-.607.33-.936.33z"/><path d="m89.398 10.325c-.456 0-.906-.207-1.201-.6-.497-.663-.363-1.604.3-2.101l9.766-7.324c.662-.496 1.603-.362 2.1.3.497.663.363 1.604-.3 2.101l-9.766 7.325c-.27.201-.586.299-.899.299z"/><path d="m47.889 17.771c-.689 0-1.31-.478-1.463-1.178l-2.442-11.109c-.178-.81.334-1.609 1.143-1.787.809-.188 1.609.334 1.787 1.143l2.441 11.109c.178.81-.334 1.609-1.143 1.787-.109.025-.217.035-.323.035z"/><path d="m12.977 104.325c-.104 0-.208-.011-.313-.033l-11.476-2.441c-.811-.172-1.328-.969-1.155-1.779.172-.811.969-1.326 1.779-1.154l11.476 2.441c.811.172 1.328.969 1.155 1.779-.15.705-.773 1.187-1.466 1.187z"/><path d="m159.592 61.598c-.192 0-.388-.037-.577-.115-.765-.319-1.126-1.197-.808-1.962l3.052-7.324c.319-.765 1.195-1.125 1.962-.808.765.319 1.126 1.197.808 1.962l-3.052 7.324c-.24.576-.798.923-1.385.923z"/><path d="m85.491 107.744c-.589 0-1.148-.349-1.387-.928-.316-.766.048-1.643.813-1.959l11.231-4.64c.766-.316 1.643.048 1.959.814s-.048 1.643-.813 1.959l-11.231 4.64c-.188.078-.381.114-.572.114z"/><path d="m43.983 96.269c-.377 0-.754-.142-1.046-.425-.594-.578-.607-1.527-.029-2.121l8.79-9.034c.578-.595 1.528-.605 2.121-.029.594.578.607 1.527.029 2.121l-8.79 9.034c-.293.302-.684.454-1.075.454z"/><path d="m68.645 48.169c-.097 0-.196-.009-.295-.029-.813-.162-1.339-.952-1.177-1.765l2.441-12.208c.162-.812.951-1.348 1.765-1.177.813.162 1.339.952 1.177 1.765l-2.441 12.208c-.143.713-.769 1.206-1.47 1.206z"/><path d="m126.998 112.871c-.462 0-.917-.213-1.211-.614-.489-.669-.344-1.607.325-2.097l10.011-7.325c.668-.488 1.606-.344 2.096.325.489.669.344 1.607-.325 2.097l-10.011 7.325c-.267.195-.577.289-.885.289z"/><path d="m50.33 145.832c-.209 0-.421-.044-.624-.137-.595-.272-14.709-6.846-26.35-21.361-10.775-13.437-21.23-36.42-9.847-69.605 11.795-34.29 38.963-44.334 59.677-46.723 22.274-2.571 41.453 2.809 42.259 3.039.796.228 1.257 1.058 1.03 1.854-.228.796-1.059 1.26-1.854 1.03-.193-.056-19.485-5.451-41.178-2.934-28.834 3.353-48.045 18.395-57.096 44.708-8.768 25.562-5.646 47.991 9.278 66.664 11.188 13.999 25.191 20.537 25.332 20.602.752.346 1.083 1.236.737 1.988-.252.551-.796.875-1.364.875z"/><path d="m50.333 145.832c-.526 0-1.037-.277-1.312-.77-.403-.724-.144-1.638.58-2.041 41.44-23.101 63.758-109.283 63.979-110.15.204-.804 1.02-1.286 1.823-1.085.803.204 1.288 1.021 1.084 1.823-.914 3.595-22.867 88.309-65.425 112.033-.232.129-.482.19-.729.19z"/><path d="m50.331 145.832c-.829 0-1.5-.672-1.5-1.5s.671-1.5 1.5-1.5c30.997 0 55.355-14.514 72.4-43.138 12.791-21.479 16.422-43.28 16.457-43.498.132-.817.91-1.38 1.72-1.241.818.132 1.374.901 1.242 1.719-.036.223-3.737 22.511-16.794 44.477-12.116 20.383-34.968 44.681-75.025 44.681z"/><path d="m69.864 151.936c-14.54 0-20.405-6.332-20.647-6.602-.554-.615-.504-1.563.111-2.118.616-.554 1.565-.505 2.118.112.046.049 5.329 5.607 18.418 5.607 56.378 0 60.76-53.981 60.76-70.526 0-23.875-4.769-39.688-4.816-39.846-.243-.792.201-1.631.993-1.874.793-.246 1.631.202 1.874.992.202.657 4.949 16.366 4.949 40.728 0 17.249-4.598 73.527-63.76 73.527z"/><path d="m50.331 145.832c-.829-.001-1.5-.672-1.5-1.5 0-.503.424-50.732 37.095-85.325.603-.568 1.552-.539 2.121.062.568.603.541 1.552-.062 2.12-35.707 33.684-36.153 82.653-36.153 83.145-.001.826-.672 1.498-1.501 1.498z"/><path d="m89.519 156.819c-29.752 0-39.892-11.021-40.309-11.491-.55-.619-.495-1.566.125-2.117.619-.551 1.566-.496 2.118.125.09.099 9.829 10.483 38.066 10.483 5.974 0 22.296-2.466 32.194-7.179 34.486-16.554 38.21-52.376 38.21-67.01 0-19.014-5.928-33.462-5.988-33.605-.318-.765.043-1.644.808-1.962.763-.316 1.642.043 1.961.808.254.609 6.219 15.152 6.219 34.76 0 15.201-3.89 52.424-39.916 69.717-10.45 4.975-27.101 7.471-33.488 7.471z"/><path d="m50.331 145.832c-.37 0-.741-.137-1.031-.411-25.747-24.395-25.861-51.236-21.423-69.457 4.783-19.64 15.454-33.313 15.906-33.887.514-.651 1.456-.76 2.106-.248.65.513.762 1.456.249 2.106-.107.136-10.761 13.808-15.371 32.837-6.139 25.342.791 47.705 20.596 66.471.601.569.627 1.52.057 2.12-.295.312-.692.469-1.089.469z"/><path d="m50.332 145.832c-.567 0-1.11-.323-1.363-.872-.3-.65-7.34-16.163-7.462-37.242-.156-19.238 5.21-35.985 16.407-51.195 17.099-23.294 39.101-23.562 40.029-23.562.829 0 1.5.672 1.5 1.5s-.671 1.5-1.5 1.5c-.21.001-21.451.321-37.612 22.339-10.799 14.67-15.975 30.828-15.824 49.397.119 20.401 7.117 35.854 7.187 36.008.346.752.017 1.643-.735 1.989-.204.094-.417.138-.627.138z"/></g></svg></g><!--ITEM: Illustration component 4--><g transform="translate(1604.0 628.0) rotate(0.0 -745.0 1080.0)  scale(-2.7490774907749076 2.751592356687898)"><svg width="542.0" height="785.0" viewBox="0.0 0.0 542.0 785.0"><clipPath id="a-i4"><path d="m0 0h541.127v784.62h-541.127z" fill="#000000"/></clipPath><g clip-path="url(#a-i4)"><path d="m253.352 44.3458c-1.173.7-14.861 14.6-14.861 27.812s2.781 22.727 10.909 23.642l8.126.912-3.259 15.7752 23.204 13.213 20.163-12.081-10.429-30.6412s5.779 2.086 9.256.7 5.345-6.736 3.259-10-10-2.086-10-2.086l.218-13.906-12.3-13.472s-15.557-6.735-16.469-6.474-5.563 1.607-5.563 1.607z" fill="#fece2f"/><path d="m74.053 132.909s-4.389-11.385-12.081-13.909c-5.2024-1.642-10.5622-2.734-15.992-3.259 0 0-19.946-4.389-20.859-1.868-.912 2.563 8.822 6.735 8.822 6.735s-5.78 3.259-7.648 3c-1.869-.218-22.25001-5.345-23.20601-2.3-.913 3 19.72901 9.038 19.72901 9.038s20.424-.912 21.337.218c.913 1.173 7.17 19.033 7.866 19.033s10.212-3.954 13.471-6.735c3.216-2.739 8.561-9.953 8.561-9.953z" fill="#fece2f"/><path d="m466.938 171.672s6.736 10.69 10.69 14.384c2.387 2.228 5.027 4.168 7.866 5.78 0 0 10.429-15.559 12.515-15.301 2.086.217 17.165 3.956 17.165 3.956l23.9-1.391s-.912-4.389-5.083-5.084-16.948-.701-16.948-.701l-8.127-5.345s12.3-1.607 11.124-3.692-13.688-2.564-19.729-2.782c0 0-11.385-2.781-15.079-.912-3.649 1.788-18.294 11.088-18.294 11.088z" fill="#fece2f"/><path d="m105.124 294.261c-10.6001-.305-21.1631-9.039-31.4621-25.944-4.7929-7.971-8.8789-16.347-12.211-25.03-.0608-.161-.089-.332-.0829-.504.0061-.171.0463-.34.1183-.496.0721-.156.1745-.296.3012-.412.1268-.115.2754-.205.4371-.263.1617-.057.3334-.082.5048-.073.1715.009.3394.053.4939.128s.2925.18.4059.309c.1135.129.2001.279.2547.442.174.478 18.078 48.583 41.2401 49.235.346 0 .677.137.922.382.245.244.382.576.382.922s-.137.677-.382.922c-.245.244-.576.382-.922.382z" fill="#1a1a1a"/><path d="m437.693 296.347c-.182.003-.361-.035-.527-.11-.165-.075-.312-.186-.429-.324-.229-.254-.348-.589-.331-.93.016-.342.166-.663.418-.895 25.943-23.206 43.369-58.405 43.543-58.753.15-.311.417-.55.743-.664s.684-.094.995.056c.312.149.551.417.665.743s.094.684-.056.995c-.174.348-17.817 35.982-44.152 59.535-.111.117-.246.209-.396.269s-.312.087-.473.078z" fill="#1a1a1a"/><path d="m275.6 1.19423c5.084-.300002 14.992 4.041 20.25 13.12397 5.258 9.083 11.734 24.9 11.907 35.416s-3.563 21.033-8.213 22.9l-5.562-3.259s-.172-10.689-14.512-25.985c-14.384-15.3-14.993-8.648-14.993-8.648l-8.517-.608s-13.906-.783-13.472-1.391c.478-.608-2.781-9.126 4.172-9.43 4.462-.0665 8.854 1.107 12.689 3.39 0 0-.912-13.6 4.954-19.64197 5.866-6.042 11.297-5.867 11.297-5.867z" fill="#fece2f"/><path d="m268.822 25.6599c.688-.4251 1.453-.7094 2.251-.8362.799-.1269 1.614-.0939 2.399.0972.787.3519 1.464.909 1.961 1.6128s.795 1.5284.863 2.3872c.13 1.7072-.091 3.423-.652 5.041-.149.9784-.642 1.8718-1.39 2.52-.575.3078-1.233.427-1.881.3405-.647-.0865-1.251-.3742-1.726-.8225-3.348-2.779-7.04-7.6-1.825-10.34z" fill="#fff"/><path d="m252.439 51.6002c-1.031-.7592-2.195-1.3192-3.433-1.651l-2.651 3.65c.747 1.0797 1.69 2.0087 2.781 2.738 2.782 1.912 5.736 2.433 6.649 1.13s-.565-3.952-3.346-5.867z" fill="#fff"/><path d="m253.179 50.5587c-1.179-.8301-2.486-1.4615-3.868-1.869-.168-.051-.343-.0679-.517-.0499s-.342.0707-.495.155c-.154.0842-.288.1982-.396.3353-.109.1372-.189.2946-.235.4631-.046.1684-.059.3445-.036.5178.023.1732.08.3402.168.4909.089.1508.206.2824.346.3869.14.1046.3.18.47.2219 1.088.3216 2.116.8206 3.042 1.477.043.044.087.044.13.087-.332-.0312-.665.0159-.975.1375-.309.1216-.586.3143-.807.5625-.156.2684-.245.5701-.26.8799-.015.3099.044.6188.173.9011-.006.0001-.012-.0009-.017-.003s-.01-.0053-.014-.0093-.007-.0088-.009-.0141c-.003-.0053-.004-.0109-.003-.0166-.969-.6514-1.809-1.4766-2.477-2.434-.196-.2882-.499-.4867-.841-.5518-.343-.0652-.697.0083-.985.2043s-.487.4984-.552.8408c-.065.3423.009.6965.205.9847.839 1.216 1.901 2.2627 3.129 3.085 1.619 1.2438 3.569 1.9844 5.606 2.13.544.0359 1.089-.06 1.588-.2795.499-.2196.938-.5562 1.28-.9815 1.391-1.959-.129-5.175-3.65-7.652z" fill="#1a1a1a"/><path d="m300.024 20.1844c3.477 7.822 6.3 14.6 7.605 23.032 1.3 8.474.652 17.426-3.3 25.031-.54 1.1917-1.342 2.2462-2.346 3.085-.513.4114-1.128.6736-1.78.7579-.652.0844-1.314-.0125-1.914-.2799-.746-.5079-1.37-1.1758-1.825-1.955-4.606-7.04-9.213-14.124-12.081-21.989.837.4857 1.802.7039 2.767.6253.964-.0786 1.881-.4503 2.629-1.0652.747-.6148 1.288-1.4434 1.551-2.3747s.234-1.9206-.081-2.8354c6.866 1.391 9-4.649 9.126-6.518.391-7.127-.695-12.124-2.26-18.382z" fill="#fff"/><path d="m316.711 126.129s27.2 8.822 45.151 25.031c17.948 16.252 35.721 50.1 40.067 74.049l1.39 1.564 63.881-54.885s2 5.737 10.82 14.21c3.651 3.52 13.124 9.43 13.124 9.43s-4.085 6.215-7.127 10.343c-1.781 2.434 4.476 3.085 4.476 3.085l-25.682 37.59s-27.378 35.112-34.331 40.675-25.378 19.946-40.674 12.689-32.158-28.768-32.158-28.768l-12.428 54.1-2.434 6.431 17.6 109.509 45.324 273.217-16.382-2.173-36.677-4.128-31.984-89.563s-18.556-53.495-25.987-80.394-19.772-69.269-19.772-69.269l1.564 61.838 2.477 170.435-35.849 6.122-12.081 2.477-18.819-90.215-23.813-123.372s-13.3-92.778-13.3-116.592 2.783-59.666 2.783-59.666l9.6-74.832s-38.328 33.722-57.84 34.635c-19.468.912-28.4641-4.042-50.7131-40.805-13.5247-22.439-25.0138-46.043-34.33-70.53 3.9096-.805 7.705-2.09 11.3-3.824l-6.736-13.3 16.253-7.171 11.038-10.69 56.0151 71.746s7.431-21.337 29.984-47.628 57.84-36.807 82.263-37.111l11.429-7.127 23.2 12.689 20.425-12.08z" fill="#fff"/><path d="m277.688 126.217-27.16 22.163s7.17 18.077 11.82 23.422 14.6 18.165 14.6 18.165 10.212-7.257 16.687-16.991c4.15-6.319 7.923-12.878 11.3-19.642z" fill="#1a1a1a"/><path d="m340.873 331.721s-8.3.869-25.509 3.129c-90.388 11.733-139.494-14.95-139.494-14.95s-2.781 35.894-2.781 59.665c0 23.814 13.3 116.592 13.3 116.592l23.811 123.373 18.86 90.3 12.08-2.477 35.852-6.127-2.477-170.435-1.565-61.838s12.385 42.37 19.773 69.269c7.431 26.9 25.986 80.394 25.986 80.394l31.984 89.563 36.677 4.128 16.383 2.173-45.324-273.207z" fill="#fece2f"/><path d="m330.791 469.867c5.3 18.208 10.082 36.546 14.688 54.928 4.563 18.382 8.937 36.822 13.124 55.32 4.172 18.467 8.155 36.993 11.95 55.58 3.738 18.556 7.345 37.2 10.343 55.928-5.3-18.208-10.082-36.547-14.688-54.929-4.563-18.382-8.938-36.822-13.124-55.319-4.172-18.467-8.155-36.994-11.95-55.581-3.734-18.595-7.301-37.195-10.343-55.927z" fill="#fff"/><path d="m81.8306 142.686s-9.343 4.432 5.128 25.422c52.2344 75.83 63.8374 56.579 63.8374 56.579z" fill="#fece2f"/><path d="m379.505 241.636s9.517 9.734 33.635-8.517c73.4-55.58 53.5-59.144 53.5-59.144z" fill="#fece2f"/><path d="m316.19 125.521-2.564 6.866s24.292 8.43 51.5 35.243c25.944 25.6 30.289 66.574 30.289 66.574l7.257-7.126s-11.3-42.37-27.377-61.708c-16.04-19.295-42.809-35.371-59.105-39.849z" fill="#fece2f"/><path d="m291.854 118.221 21.771 14.167 3.085-6.258-19.077-12.472z" fill="#fece2f"/><path d="m243.445 125.217 14.775-9.3-3.955-3.39-11.603 7.258z" fill="#fece2f"/><path d="m137.5 211.955s17.469-34.982 39.892-53.973c38.5-32.635 66.01-32.765 66.01-32.765l-.782-4.781s-38.85.218-65.575 21.946c-8.344 6.822-41.762 39.892-47.324 61.838z" fill="#fece2f"/><path d="m283.901 143.946 4.563-8.343-10.69-11.212-13.08 11.385 4.302 7.996-6.388 29.855 14.21 18.295 12.819-11.777z" fill="#fece2f"/><path d="m352.432 286.178 10.43 40.023-4.867-2.608-14.384-.695z" fill="#fff"/><g fill="#1a1a1a"><path d="m362.861 327.505c-.216.009-.43-.051-.609-.173l-4.606-2.477-14.123-.7c-.193-.006-.383-.055-.555-.144s-.321-.215-.438-.369-.198-.333-.236-.522c-.039-.19-.035-.386.012-.573l8.822-36.72c.068-.284.229-.537.457-.719.229-.181.512-.28.803-.281.288-.008.569.083.798.257s.392.42.462.699l10.43 40.066c.069.246.061.508-.025.749s-.244.45-.453.598c-.09.105-.204.188-.333.241-.128.054-.267.077-.406.068zm-17.6-5.823 12.82.609c.202-.004.4.057.565.174l2.216 1.216-8.344-32.114z"/><path d="m491.535 196.051c-.238.001-.472-.064-.675-.187-.203-.124-.367-.301-.476-.513-.108-.212-.155-.449-.136-.686s.103-.464.244-.656c.174-.826-1.478-3.694-2.261-4.52-.222-.167-.388-.398-.473-.663-.086-.264-.087-.549-.005-.814.054-.163.139-.314.252-.444.112-.13.249-.237.402-.314.154-.076.321-.122.493-.134.171-.012.343.011.506.066 1.086.348 2.999 3.737 3.432 5.258.209.497.294 1.037.249 1.574-.046.538-.22 1.056-.509 1.511-.122.162-.279.294-.46.384-.181.091-.381.138-.583.138z"/><path d="m279.426 356.056-3.954-21.424c-.032-.167-.091-.329-.174-.478-.348-.521-34.9-53.407-50.887-107.9-9.561-32.5-13.3-57.84-14.775-73.354-1.608-16.817-.956-26.03-.956-26.16.016-.217-.024-.434-.115-.632-.092-.198-.232-.369-.407-.498-.13-.087-3.694-2.608-9.43 0-5.649 2.564-6.518 6.779-6.562 7v.217c0 .478-1.39 48.845 18.86 113.03 10.6 33.591 28.029 62.1 40.762 80.046 7.715 11.038 16.21 21.508 25.422 31.331.241.244.568.385.912.392.21-.001.417-.046.609-.131.255-.133.46-.345.585-.604.126-.259.164-.552.11-.835z"/><path d="m426.09 759.327c.378-.007.755-.036 1.13-.087 1.037-.193 2.005-.657 2.806-1.343.801-.687 1.407-1.573 1.757-2.568.276-.663.411-1.377.396-2.095s-.18-1.425-.483-2.076c-.826-1.826-2.781-3.607-5.823-5.259 2.797.07 5.541-.769 7.822-2.39 1.137-.955 1.975-2.218 2.414-3.636.44-1.419.461-2.934.063-4.364-1.521-5.823-8.039-7.3-10.777-7.648-10.169-1.347-26.291 1.3-30.81 2.13l-4.65-15.862 13.645 1.608h.174c.177.001.353-.033.517-.101.164-.067.313-.165.439-.29.141-.149.246-.328.306-.525.061-.196.075-.403.042-.605l-62.751-382.717c-.072-.322-.264-.603-.536-.789s-.604-.261-.929-.212c-.326.05-.62.221-.824.48-.204.258-.302.585-.275.913l62.49 381.022-36.677-4.345-103.86-335c0-.044-.043-.087-.043-.13s0-.044-.044-.087-.043-.087-.087-.131c-.047-.081-.106-.154-.174-.217-.05-.054-.108-.098-.173-.13-.048-.046-.109-.076-.174-.087-.051-.035-.113-.051-.174-.044h-.044c-.043 0-.13-.043-.173-.043h-.218l-39.892 2.173c-.171.005-.34.045-.496.116-.156.07-.296.171-.413.296s-.209.272-.269.433c-.06.16-.088.33-.082.502.005.171.045.339.116.495.07.156.171.297.296.414s.272.208.433.268c.16.06.331.088.502.083h.086l9.039-.478c.068 7.499 2.724 14.744 7.518 20.511 1.13 1.391 2.347 2.781 3.52 4.129 7 8 13.6 15.6 11.733 27.073-.565 3.346-1.347 6.735-2.086 10.038-2.477 10.647-5 21.685.131 32.5 2.151 4.223 4.576 8.302 7.257 12.211 6.909 10.56 14.732 22.554 15.731 39.98l.739 56.623c-2.955-3.824-8.474-10.82-14.775-18.686-9.517-11.863-15.166-17.9-19.6-18.165-.608-.036-1.217.057-1.786.275-.569.217-1.085.553-1.514.986-5.258 5.258.7 16.643 5.737 22.553 1.173 1.391 2.216 2.564 3.172 3.564 3.172 3.476 4.91 5.432 5.606 9.69.18 1.398.267 2.806.26 4.216.087 5.041.218 11.3 7.518 18.773 2.608 2.694 5.085 4.823 7.214 6.692 5.041 4.389 8.213 7.17 8.735 12.472l1.043 77.7-33.331 6.3c-.522-2.3-1.391-6.127-2.564-11.3-.522-2.173-1.043-4.607-1.651-7.257.832-.226 1.613-.61 2.3-1.13 1.356-1.033 2.248-2.561 2.481-4.25.223-1.697-.23-3.414-1.26-4.78l-2.44-3.22c-3.822-5.017-6.519-10.797-7.909-16.948l-.565-2.651c-.437-1.864-.392-3.808.13-5.649.478-1.651 1-2.086 1.217-2.216 1.434-.826 3.346.826 5.91 3.3 2.477 2.39 5.563 5.345 8.344 2.911 3.607-3.129.565-11.125-9.865-25.813-2.216-3.129-5.388-7.518-9.43-12.993-4.714-6.406-7.976-13.761-9.56-21.554-5.519-26.9-10.212-51.539-13.993-73.224-.041-.168-.025-.345.046-.502s.192-.287.345-.367c.143-.09.309-.138.478-.138s.334.048.478.138c4.607 3.216 7.518 2.086 9.126.565 3.346-3.129.261-10.734-2.694-18.121-1.608-4.042-3.651-9.039-3.129-10.56s1-1.521 2.825-1.347c2.2.358 4.455-.14 6.3-1.391 4.563-3.259 2-11.863-8.909-29.593-.912-1.478-1.781-2.955-2.651-4.389-9.683-16.497-15.077-35.158-15.687-54.277-1.565-49.062 3.867-72.137 3.954-72.4.077-.311.034-.639-.118-.921-.153-.281-.405-.495-.707-.6l-15.636-5.642c.04-.338-.05-.679-.252-.953-.201-.274-.5-.462-.834-.524-.169-.028-.341-.021-.507.019s-.322.112-.46.214c-.137.101-.253.228-.341.375-.088.146-.145.309-.169.478v.087c-.145.108-.267.244-.356.401-.09.157-.147.331-.166.511 0 .131-.3 4.129-.652 10.3-.478 5.6-.956 13.254-1.173 22.684-.391 8.734-.652 17.9-.652 25.812 0 5.041.608 13.255 1.564 23.032.913 15.123 2.434 31.984 4.954 50.409 10.995 81.22 49.019 255.783 49.41 257.564.059.291.216.554.445.744s.517.295.815.299c.089.006.178-.008.261-.043l11.038-2.086c.695 6.344 1.564 16.252 1.26 19.6-1.897-3.322-4.335-6.303-7.214-8.821-4.432-3.737-9.212-5.693-12.211-4.954-.603.14-1.167.416-1.648.805s-.868.883-1.132 1.443c-.263.56-.396 1.173-.389 1.792s.154 1.229.431 1.783c.868 1.501 2.073 2.781 3.52 3.737-5.736-1.825-9.777-2.216-12.254-1.173-.637.247-1.208.639-1.668 1.144s-.796 1.11-.983 1.767c-.913 3.216.13 5.3 1.217 6.475 2.3 2.521 7.17 3.781 14.427 3.781.956 0 2-.043 3.042-.087-7.17 2.825-16.948 6.432-29.593 10.734-10.473 3.563-10.6 7.865-10.43 9.082.3 1.825 1.912 3 4.172 3h1.043c11.472.13 21.293.13 29.42.13 8.169 0 14.644-.043 19.468-.087 41.109-.391 42.63-2 43.412-2.825 2.391-2.563.739-10.559-2.259-23.466-1.217-5.3-2.39-10.3-2.738-13.515-.3-3.042-.913-18.251-.913-18.642l-1.043-77.569c.036-.127.051-.259.044-.391l-.348-20.512-1.043-78.221c0-.086.044-.173.044-.3l-.348-41.457c4.259 14.732 11.125 38.589 15.9 55.841 7.344 26.639 25.813 79.959 25.987 80.481l1.955 5.432c16.253 47.5 29.55 82.74 30.028 84.131 2.347 7.561 14.167 44.933 19.556 48.41 2.65 1.738 16.513 9.212 30.245 15.731 16.557 7.909 27.377 11.907 32.288 11.907.466.008.933-.036 1.39-.131.396-.077.771-.237 1.1-.469.33-.232.607-.532.813-.878 1.216-2.216.13-7.127-16.557-26.551 2.182 1.6 4.774 2.547 7.474 2.73zm-191.424-25.9c-2.086.261-4.606.522-7.213.652-8.431.435-14.21-.565-16.3-2.824-.461-.545-.765-1.206-.88-1.91-.115-.705-.036-1.427.228-2.09.073-.281.215-.538.412-.751.197-.212.444-.372.718-.466.739-.254 1.518-.372 2.3-.348 2.39 0 6.605.783 13.949 3.781 2.955 1.173 5.693 2.477 7.822 3.52-.297.132-.645.308-1.036.436zm-2.129-6.344c-8.17-3.52-10.256-5.954-10.821-7.083-.108-.175-.172-.372-.187-.577-.015-.204.019-.409.101-.597.094-.245.246-.464.442-.638.197-.174.432-.298.687-.362.272-.053.548-.082.826-.087 2.26 0 5.823 1.738 9.082 4.476 2.391 2.089 4.443 4.537 6.084 7.257-1.695-.564-3.911-1.433-6.214-2.389zm11.255-8.3c-.347-4.129-.739-8.126-.956-9.778l32.9-6.214c.131 3.476.522 11.95.783 15.861zm114.333 7.778c-1.695-4.91-3.563-10.516-5.562-16.861l34.46 4.085 5.128 17.513zm38.937 5.65c6.083-1 19.381-2.868 27.9-1.738 6.432.869 8.17 3.954 8.605 5.736.279.919.288 1.899.026 2.824-.262.924-.784 1.754-1.504 2.39-5.388 4-15.253.913-22.6-2.433-4.291-1.978-8.442-4.242-12.427-6.779zm7.822 9.343c3.788.837 7.532 1.867 11.216 3.085 9.952 3.259 12.559 6.171 13.211 7.605.167.32.258.676.266 1.037.008.362-.069.721-.222 1.049-.169.585-.499 1.111-.953 1.517-.453.407-1.011.678-1.611.783-.245.036-.492.051-.739.044-4.476 0-11.82-5.867-17.556-11.256-1.266-1.3-2.482-2.647-3.612-3.864z"/><path d="m256.134 282.963c2.928 0 5.302-2.373 5.302-5.302 0-2.928-2.374-5.302-5.302-5.302s-5.302 2.374-5.302 5.302c0 2.929 2.374 5.302 5.302 5.302z"/><path d="m256.133 284.267c-1.306.001-2.584-.386-3.671-1.111s-1.935-1.756-2.436-2.963-.633-2.536-.378-3.817c.254-1.282.883-2.46 1.806-3.384.924-.925 2.101-1.555 3.383-1.81 1.281-.255 2.61-.125 3.817.375 1.208.5 2.24 1.347 2.966 2.433s1.113 2.364 1.113 3.671c.001.867-.169 1.726-.5 2.527-.332.802-.818 1.53-1.43 2.143-.613.614-1.341 1.101-2.142 1.433-.802.332-1.66.503-2.528.503zm0-10.6c-.791 0-1.564.234-2.222.674-.658.439-1.17 1.064-1.473 1.795s-.382 1.535-.228 2.311c.155.776.536 1.489 1.095 2.048.559.56 1.272.94 2.048 1.095.776.154 1.58.075 2.311-.228s1.356-.815 1.795-1.473c.44-.658.674-1.431.674-2.222.003-.526-.099-1.048-.299-1.534-.201-.487-.495-.929-.867-1.301s-.813-.667-1.3-.868c-.486-.201-1.007-.303-1.534-.301z"/><path d="m257.264 252.456c2.928 0 5.302-2.374 5.302-5.302 0-2.929-2.374-5.302-5.302-5.302s-5.302 2.373-5.302 5.302c0 2.928 2.374 5.302 5.302 5.302z"/><path d="m257.264 253.761c-1.306 0-2.584-.387-3.67-1.113-1.087-.726-1.933-1.757-2.434-2.964-.5-1.208-.631-2.536-.376-3.817.255-1.282.884-2.459 1.808-3.383s2.101-1.553 3.382-1.808c1.282-.255 2.61-.124 3.817.376s2.239 1.346 2.965 2.433c.726 1.086 1.113 2.363 1.113 3.67.001.867-.169 1.727-.501 2.529-.332.801-.818 1.53-1.432 2.143-.613.614-1.341 1.101-2.143 1.432-.802.332-1.661.502-2.529.502zm0-10.6c-.791 0-1.564.234-2.222.674-.658.439-1.171 1.064-1.473 1.795-.303.731-.382 1.535-.228 2.311s.535 1.489 1.095 2.048c.559.56 1.272.941 2.048 1.095s1.58.075 2.311-.228c.731-.302 1.356-.815 1.795-1.473.44-.658.674-1.431.674-2.222.002-.526-.099-1.048-.3-1.534-.2-.487-.494-.929-.866-1.301s-.814-.667-1.3-.868c-.486-.2-1.008-.303-1.534-.301z"/><path d="m446.862 195.268c-.894 0-1.768.265-2.511.761-.744.497-1.323 1.203-1.665 2.029s-.432 1.735-.257 2.612c.174.877.605 1.682 1.237 2.314s1.438 1.063 2.315 1.237c.876.174 1.785.084 2.611-.258s1.532-.922 2.029-1.665c.496-.743.761-1.617.761-2.511-.007-1.197-.485-2.343-1.331-3.189s-1.992-1.324-3.189-1.33z"/><path d="m456.51 187.186c-.894-.001-1.768.264-2.511.761-.744.496-1.323 1.202-1.665 2.028-.343.826-.432 1.735-.258 2.612s.605 1.682 1.237 2.315c.632.632 1.438 1.062 2.315 1.237.877.174 1.785.085 2.611-.258.826-.342 1.532-.921 2.029-1.665.497-.743.761-1.617.761-2.511-.006-1.197-.485-2.343-1.331-3.189s-1.991-1.324-3.188-1.33z"/></g><path d="m307.518 199.53-1.884 11.624 30.11 4.881 1.885-11.623z" fill="#fece2f"/><path d="m90.5233 163.806c-.8914-.062-1.7811.142-2.5569.585-.7758.444-1.403 1.107-1.8027 1.906s-.5539 1.699-.4433 2.585c.1106.887.4811 1.721 1.0649 2.398.384.453.8548.825 1.3849 1.094.53.268 1.1084.428 1.7011.47h.347c1.0823-.003 2.1289-.387 2.955-1.086.4536-.384.8258-.855 1.0946-1.385.2688-.529.4287-1.108.4704-1.7.0688-1.201-.333-2.38-1.12-3.289s-1.8973-1.475-3.095-1.578z" fill="#1a1a1a"/><path d="m83.135 153.593c-.591-.045-1.1848.028-1.7475.214-.5626.186-1.083.482-1.5312.869-.4483.388-.8155.86-1.0807 1.39s-.4231 1.107-.4646 1.699c-.0878 1.2.303 2.386 1.087 3.3.3839.453.8546.825 1.3844 1.093.5298.269 1.108.429 1.7006.471h.348c1.0822-.003 2.1287-.388 2.955-1.086.4534-.384.8253-.855 1.0939-1.385s.4285-1.109.4701-1.701c.0731-1.201-.3273-2.383-1.1152-3.292-.7879-.91-1.9007-1.474-3.0998-1.572z" fill="#1a1a1a"/><path d="m253.352 74.5468c-.336-.0028-.66-.1263-.912-.348-3.52-3.433-3.781-6.475-2.868-8.213.386-.6956.993-1.2435 1.724-1.558.731-.3144 1.546-.3777 2.317-.18.225.0769.465.0973.7.0592.235-.038.457-.1332.647-.2772 1.13-.869 1.478-3.346 1.521-4.128.024-.3344.179-.6458.431-.8677.251-.2218.579-.3365.914-.3196.335.017.65.1643.878.4105.227.2462.35.5716.341.9068 0 .435-.261 4.346-2.564 6.084-.498.3716-1.072.6273-1.681.7484s-1.238.1046-1.839-.0484c-.211-.082-.443-.0879-.658-.0165-.214.0715-.396.2156-.515.4075-.478.869.043 2.868 2.39 5.128.245.2374.388.562.396.9035s-.118.6726-.352.9215c-.11.1223-.244.22-.394.2867s-.312.1009-.476.1003z" fill="#1a1a1a"/><path d="m273.86 66.6055c.908-1.2976-.587-3.9116-3.339-5.8387-2.753-1.927-5.721-2.4373-6.629-1.1397-.909 1.2976.586 3.9116 3.339 5.8387 2.753 1.927 5.721 2.4373 6.629 1.1397z" fill="#fff"/><path d="m274.689 63.2475c-.885-1.4126-2.054-2.6259-3.433-3.563-1.359-.9878-2.916-1.6701-4.563-2-2.39-.435-3.476.565-3.911 1.173s-.956 1.956.218 4.085c.885 1.4127 2.054 2.626 3.433 3.563 1.619 1.2438 3.569 1.9844 5.606 2.13.544.0353 1.088-.0607 1.588-.28.499-.2193.938-.5554 1.28-.98.478-.651.999-1.998-.218-4.128zm-9.389-1.608c-.435-.738-.435-1.216-.348-1.3.207-.135.454-.1963.7-.174.218-.0044.435.01.651.043 1.26.2594 2.447.7937 3.477 1.565.043.043.087.043.13.087-.331-.0313-.665.0157-.974.1373-.31.1216-.586.3144-.807.5627-.156.2684-.246.5704-.261.8804-.015.3101.045.6193.174.9016-.006.0002-.012-.0009-.017-.003-.006-.0022-.011-.0054-.015-.0095-.004-.0042-.007-.0091-.009-.0145s-.003-.0111-.003-.017c-1.093-.6654-2.017-1.5757-2.698-2.659z" fill="#1a1a1a"/><path d="m276.775 59.5536c-.21-.0013-.417-.0455-.608-.13-6.214-3.172-7.388-10.3-7.431-10.6-.039-.174-.042-.3542-.009-.5294.034-.1752.103-.3417.204-.489.1-.1473.23-.2723.381-.3673s.32-.1579.496-.1848.356-.0172.529.0285c.172.0457.333.1263.473.2369.14.1107.256.2489.34.4062.084.1572.135.3301.15.5079 0 .087 1.043 6.127 6.04 8.647.255.1357.459.3517.579.6147.12.2629.151.5581.086.84-.064.2819-.219.5348-.442.7196-.222.1847-.499.2911-.788.3027z" fill="#1a1a1a"/><path d="m255.612 49.5167c-1.643-.0018-3.274-.2811-4.823-.826-.163-.0547-.313-.1413-.442-.2547s-.234-.2514-.309-.4059-.119-.3224-.128-.4939.016-.3431.073-.5048c.058-.1617.148-.3103.264-.4371.115-.1267.255-.2291.411-.3012.156-.072.325-.1122.496-.1183.172-.0061.343.0221.504.0829 2.615.9564 5.489.9255 8.083-.087.315-.1338.67-.1391.989-.0147.319.1243.577.3684.719.6802.142.3119.156.6667.04.9889-.117.3221-.354.5861-.662.7356-1.661.6493-3.432.9738-5.215.956z" fill="#1a1a1a"/><path d="m254.265 85.5422c-.224-.001-.444-.057-.641-.163-.197-.1061-.365-.2588-.489-.445-1.564-2.521-3.259-3.955-4.91-4.172-.566-.0541-1.136.0107-1.675.1904-.539.1796-1.035.47-1.454.8526-.12.1199-.263.2149-.419.2798-.157.0648-.324.0982-.494.0982-.169 0-.337-.0334-.494-.0982-.156-.0649-.299-.1599-.418-.2798-.12-.1198-.215-.2621-.28-.4186-.065-.1566-.098-.3244-.098-.4939 0-.1694.033-.3373.098-.4938.065-.1566.16-.2988.28-.4187.704-.6438 1.537-1.1315 2.443-1.431s1.865-.4041 2.815-.307c2.52.3 4.823 2.129 6.822 5.345.09.1448.151.3063.179.475.027.1687.02.3412-.02.5072-.041.1661-.114.3223-.216.4595s-.23.2526-.377.3393c-.203.1033-.425.1626-.652.174z" fill="#1a1a1a"/><path d="m308.106 42.0855c-2.651-14.167-11.516-32.63503-21.771-39.06703-2.063-1.44854-4.425-2.414737-6.912-2.827102-2.486-.412366-5.034-.2603531-7.454.444793-2.42.705149-4.651 1.945379-6.527 3.628959s-3.35 3.76741-4.312 6.09738c-2.173 4.563-2.955 11.081-3.259 14.21-5.519-2.564-10.6-3.389-13.819-1.825-4.389 2.13-3.346 7.822-2.651 10.3-1.068 2.2593-1.446 4.7838-1.086 7.257.608 5.65 4.78 7.822 8 8.431-3.187 3.7007-5.822 7.8437-7.822 12.3-2.753 5.9737-3.849 12.5781-3.173 19.121.913 7.431 4.433 13.341 9.43 15.731 2.643 1.2105 5.526 1.8048 8.431 1.738h.478l-3.129 15.3825c-.068.335-.001.682.186.967.188.285.481.485.814.554.087 0 .174.044.261.044.298-.003.586-.108.815-.298s.387-.453.445-.745l.478-2.39c.044-.087.044-.174.087-.217l.478-1.913c1.478-4.128 5.693-6.127 10.126-8.256 2.12-.9111 4.143-2.032 6.04-3.3455 2.416-1.6261 4.197-4.0361 5.041-6.823v-.434c.007-.0614-.009-.1232-.044-.174 0-.044 0-.044-.043-.087-.01-.0655-.041-.1261-.087-.174v-.047c-.032-.0651-.076-.1237-.13-.173l-.044-.044-.13-.13-.044-.044-.043-.043c-.044-.044-.087-.044-.13-.087-.005.0001-.011-.0009-.016-.003-.006-.0021-.011-.0053-.015-.0093s-.007-.0088-.009-.014c-.002-.0053-.004-.011-.004-.0167-.087-.044-.13-.044-.217-.087h-.046c-.043 0-.13-.044-.173-.044h-.305c-.087 0-.13.044-.217.044h-.043c-.065.0104-.126.0408-.174.087h-.044c-.173.086-17.165 9.343-27.551 4.389-4.128-1.956-7.17-7.214-7.952-13.689-1.478-12.3 5.041-25.856 17.513-36.5 3.563 3.216 7.952 2.3 10.69.912 1.738 3.086 5.388 3.911 7.909 3.868.683 2.0933 2.027 3.9081 3.831 5.1708 1.804 1.2626 3.969 1.9046 6.169 1.8292.204.007.408-.0074.608-.043.565.782 1.217 1.651 1.869 2.607-2.758 2.3273-4.516 5.6257-4.911 9.213-.391 4.476 1.434 6.953 3.085 7.779.404.2008.85.3036 1.3.3.541.014 1.067-.1719 1.478-.522.006.0001.012-.0009.017-.003s.01-.0053.014-.0093.007-.0088.009-.0141c.003-.0053.004-.011.003-.0166.838-.741 1.831-1.2855 2.906-1.5938s2.205-.3726 3.308-.1882c.738.1479 1.436.4487 2.05.8829.613.4342 1.129.9922 1.514 1.6381.382.7755.588 1.6259.603 2.4902.015.8644-.161 1.7214-.516 2.5098-.417.7751-1.013 1.4395-1.739 1.9383-.725.4988-1.559.8174-2.433.9297-5.171 1.043-7-1.477-7.127-1.651 0-.044-.043-.044-.043-.087-.044-.043-.044-.087-.087-.13l-.087-.087-.087-.087c-.044-.044-.087-.044-.131-.087-.032-.0047-.063-.0202-.086-.044-.044 0-.087-.043-.131-.043s-.087-.043-.13-.043h-.522c-.023-.0029-.047-.0006-.069.0069-.023.0074-.043.0197-.061.0361h-.087c-.043 0-.087.043-.13.043s-.087.044-.131.044c-.043 0-.043.043-.087.043-.043.044-.087.044-.13.087l-.087.087-.087.087c-.043.044-.043.087-.087.13-.004.0329-.019.0635-.043.087 0 .044-.044.087-.044.131s-.043.087-.043.13v.522c-.002.0235 0 .0473.007.0698.008.0224.02.043.036.0602 0 .043 0 .043.044.087l10.69 31.3315c.09.252.255.471.473.626.217.155.477.24.744.243.148-.012.294-.041.434-.087.163-.053.314-.138.444-.251.13-.112.237-.248.313-.402.077-.153.123-.321.135-.492s-.011-.343-.066-.506l-9.43-27.6385c1.08.356 2.21.5324 3.346.522.979-.0034 1.954-.1039 2.912-.3 1.274-.178 2.485-.6623 3.53-1.4112 1.045-.749 1.893-1.7402 2.47-2.8888.525-1.1572.785-2.4166.762-3.6868-.022-1.2702-.327-2.5195-.893-3.6572-.143-.2706-.302-.5321-.478-.783 6.599-3.618 9.64-16.829 7.033-30.909zm-48.407-8.686c-1.477-1.478-5.215-4.78-9.734-4.911-2.33-.1477-4.633.5638-6.475 2-.3-2-.217-4.432 1.695-5.388 3.172-1.565 11.124.434 19.164 6.344.159.2547.407.4409.695.522.09.0862.191.1593.3.217-1.929.1357-3.83.5452-5.645 1.216zm12.9 1.777c-1.756-1.8052-3.644-3.4765-5.65-5 .044-.174.131-.347.174-.478.545-1.3726 1.521-2.5309 2.781-3.3.437-.293.936-.4773 1.458-.5377s1.051.005 1.542.1907c.472.2369.882.5799 1.199 1.0021.316.4221.531.9119.626 1.4309.288 1.4483.121 2.9502-.478 4.3-.387.8987-.948 1.7117-1.652 2.392zm1.872 1.823c.933-.9414 1.684-2.0461 2.216-3.259.228-.5528.417-1.1208.565-1.7 3.129 1.955 11.168 7.518 15.731 16.426 5 9.691 4.476 15.775 3.39 18.9-1.608-5.259-5.3-10.734-7.866-14.124-.039-.1238-.098-.2408-.173-.347-.131-.218-3.52-4.911-5.737-7.518-2.502-2.9855-5.218-5.7855-8.126-8.378zm24.64 34.33c-.404-.2826-.84-.5159-1.3-.695 1.695-2.825 4.3-10.169-2.477-23.336-1.713-3.2971-3.877-6.3394-6.431-9.039.907-3.0652 2.689-5.799 5.127-7.866.137-.1027.253-.2314.34-.3786.087-.1473.144-.3103.169-.4797.024-.1695.014-.342-.028-.5078-.043-.1657-.117-.3215-.22-.4584s-.231-.2523-.379-.3395c-.147-.0871-.31-.1445-.479-.1686-.17-.0242-.342-.0148-.508.0277s-.322.1172-.459.2199c-2.546 2.0753-4.495 4.7894-5.649 7.865-2.819-2.6842-5.94-5.0331-9.3-7-.026-.4552-.099-.9066-.217-1.347-.181-.9122-.574-1.769-1.147-2.5013s-1.311-1.3197-2.153-1.7147c-.877-.3686-1.835-.5033-2.781-.391-1.608-4.563.217-9.734.217-9.821.06-.1596.087-.3295.08-.4997s-.048-.3372-.121-.4912-.176-.2917-.304-.4051c-.127-.1134-.275-.2001-.437-.255-.159-.0645-.329-.0952-.501-.0903s-.34.0454-.496.1189c-.155.0735-.293.1784-.406.3081-.112.1297-.197.2813-.248.4453-.087.261-2.13 6.127-.261 11.559-.044 0-.044.044-.087.044-1.726 1.0374-3.068 2.6085-3.824 4.476-1.478-1-2.955-1.912-4.389-2.738.174-2.173.826-9.6 3.085-14.34.854-1.96597 2.118-3.72714 3.707-5.16599 1.588-1.43886 3.466-2.52231 5.506-3.17804 3.954-1.173 8.17-.435 12.254 2.129 8.648 5.38903 17.731 21.77203 20.6 37.32903 1.273 6.3782 1.184 12.9535-.261 19.295-1.355 4.829-3.571 8.26-6.222 9.392z" fill="#1a1a1a"/><path d="m283.772 142.6h-14.08c-.346 0-.677.137-.922.381-.244.245-.381.576-.381.922s.137.677.381.922c.245.244.576.382.922.382h14.08c.346 0 .677-.138.922-.382.244-.245.382-.576.382-.922s-.138-.677-.382-.922c-.245-.244-.576-.381-.922-.381z" fill="#fff"/><path d="m538.163 174.627c-2.3-1.521-9.516-1.825-17.382-2.042-1.564-.044-2.781-.087-3.433-.131-1.043-.087-3.39-1.738-5.649-3.52 3.954-.434 8.865-1.39 9.69-3.52.152-.437.172-.91.056-1.359-.116-.448-.362-.852-.707-1.161-2.825-2.955-18.556-2.955-23.293-2.912h-.174c-5.136-1.408-10.58-1.211-15.6.565-7.649 2.781-14.645 9.6-15.3 10.256l-62.968 53.929c-1-3.65-3.3-11.733-6.822-21.294l-.7-2.259c-.063-.204-.183-.385-.347-.522-4.65-12.167-11.125-26.117-19.208-36.068-18.773-23.119-41.283-32.549-42.022-32.853l-17.504-7.388-18.47-11.993c-.218-.128-.465-.196-.718-.196-.252 0-.5.068-.717.196l-19.295 12.345-23.206-12.6c-.201-.11-.427-.164-.656-.156s-.451.076-.644.199l-10.864 6.432c-17.829.849-35.251 5.627-51.018 13.993-13.852 7.362-26.215 17.235-36.459 29.115-6.413 7.478-12.157 15.505-17.165 23.988-.128.108-.232.241-.305.391l-.434.913c-2.865 4.875-5.42 9.925-7.648 15.122l-46.2831-60.149c-.044-.043-.044-.087-.087-.13l-7.083-9.218c-2.4714-6.472-7.3217-11.755-13.559-14.77-4.2861-2.171-9.0633-3.189-13.862-2.955-1-.174-5.91-1.043-11.038-1.695-11.994-1.564-13.341-.565-13.993-.087-.2102.141-.3859.328-.5139.546-.1279.218-.2049.463-.2251.715-.217 1.781 1.521 3.433 5.606 5.258.956.434 1.869.782 2.694 1.13-2.477 1.173-5.171 2.085-7.561 1.781-1.217-.174-2.955-.521-4.954-.956-8.17-1.695-14.60004-2.824-17.16504-.912-.336608.25-.615773.57-.818771.937-.202999.367-.325138.774-.35822703 1.192-.02739707.284.04416453.568.20255003.805.158385.237.393845.412.66645.495l21.337038 7.431c.1548.05.3155.079.478.087 8.908-.392 18.9-.392 20.685.26.782 1.217 3.259 7.084 5.432 12.6-4.172 3.867-4.563 5.388-4.3 6.431.0762.338.2588.642.521.869l1.912 3.607c-1.173 1.217-6.953 7.561-6.779 11.472.0269.77.3186 1.507.826 2.086.956 2.086 8.691 18.73 17.991 37.459 8.995 18.078 16.469 32.158 22.379 42.066l.305.565c.0489.127.1409.233.26.3 2.608 4.346 4.954 7.866 6.91 10.516 7.952 10.691 14.9491 16.774 22.7271 19.773 3.567 1.357 7.352 2.049 11.169 2.042 6.475 0 13.558-1.868 21.293-5.649 14.384-7 29.2-18.947 39.5-28.116l-8.692 71.876c-.03.246.012.496.12.72.108.223.278.411.489.541.521.3 13.254 7.822 40.11 13.123 13.384 2.651 31.853 4.954 55.363 4.954 23.52-.121 46.991-2.156 70.181-6.084.073-.01.146-.025.218-.043.043 0 .043-.043.086-.043s.087-.044.131-.087c.043 0 .043-.044.087-.044.043-.043.087-.043.13-.087.044 0 .044-.043.087-.043.043-.044.087-.087.087-.131l.043-.043c.046-.048.076-.108.087-.174v-.043c.044-.087.044-.131.087-.218l14.688-57.535c4.954 6 19.86 23.031 32.245 27.377 3.138 1.131 6.442 1.734 9.777 1.782 10.951 0 20.859-6.953 34.2-19.208 7.084-6.518 18.86-20.989 34.939-43.021 11.646-15.949 21.467-30.289 22.076-31.158.789-.882 1.209-2.033 1.173-3.216-.087-2.347-1.782-4.563-2.781-5.606l4.171-5.954c.158-.209.254-.459.277-.72s-.028-.523-.146-.757c.261-.739.217-2.477-2.912-6.91 3.173-4.823 6.3-9 7.431-9.3 1.13-.174 7.779 1.217 16.209 3.433.523.145 1.066.204 1.608.174l24.77-.913c.279-.007.548-.103.767-.276.22-.172.377-.411.45-.68.047-.249.569-2.595-2.908-4.942zm-19.337-10.038c-1.087.782-5.346 1.651-9.6 1.955-.106.003-.209.033-.3.087-2-1.608-3.868-3.129-5.172-3.954l-.043-.044c7.075.174 13.767.867 15.115 1.956zm-201.81-37.329 15.253 6.431c-3.26 12.125-8.518 30.072-10.386 32.549-1.565 2.086-7 2.042-10.6 2.042-1.425-.082-2.854.005-4.258.261-2.043.609-2.3 3.433-.826 9.43.161.657.108 1.348-.149 1.973-.258.625-.708 1.152-1.285 1.504-5.943 3.614-12.547 6.007-19.425 7.04-1.695.217-3.172.347-4.389.391 9.473-7.214 18.3-19.469 26.291-36.5 3.79-8.157 7.055-16.547 9.774-25.121zm-19.382-12.255 17.035 11.082c-2.718 8.628-6.014 17.063-9.865 25.248l-25.03-24.9zm5.954 38.807c-6.345 12.95-15.253 26.986-26.422 34.5-8.472-9.377-15.635-19.858-21.293-31.158-1.434-2.825-2.694-5.606-3.824-8.344l25.551-20.855zm-49.758-39.112 21.555 11.69-24.336 19.9c-3.286-8.317-5.634-16.975-7-25.813zm-25.465 7.953c4.359-.733 8.754-1.227 13.167-1.478 2.061 12.934 6.123 25.469 12.038 37.155 5.573 11.068 12.539 21.379 20.728 30.68-14.21 1-34.243-10.256-35.547-12.515-.347-1.087 2.043-5.91 3.346-8.474 2.086-4.215 3.26-6.649 3-8.17-.046-.266-.147-.518-.296-.742-.15-.224-.345-.414-.573-.558-1.434-.956-4.172-.347-8.822.826-2.3.565-5.693 1.391-6.822 1.217-1.262-2.784-1.084-21.036-.219-37.94zm-168.4791 25.031c5.6424-3.116 10.6298-7.292 14.688-12.3l5.563 7.214c-6.5938 6.744-13.9768 12.667-21.989 17.643-1.565 1-3 1.825-4.3 2.564l-5.648-10.605c2.169-.214 5.863-1.3 11.686-4.516zm-34.374-32.592c1.13-.174 4.129-.217 11.69.739 1.13.13 2.26.3 3.346.478-1.086.3-1.955.652-2.564.869-1.2841.525-2.5324 1.134-3.737 1.822-.087.044-.13.087-.217.131-3.781-1.214-7.43-2.996-8.518-4.039zm7.475 13.645c-4.563.044-9.082.218-10.169.261l-19.07704-6.649c2.955-.521 10.00004.913 14.03604 1.782 2.043.435 3.824.782 5.128 1 4.389.608 8.909-1.826 12.559-3.824 1.0833-.641 2.2166-1.194 3.389-1.652 2.9658-1.148 6.0853-1.851 9.257-2.086.1888.029.3817.014.564-.043 4.2928-.2 8.5632.729 12.385 2.694 5.4559 2.691 9.7601 7.258 12.125 12.863-3.9597 5.042-8.8778 9.251-14.471 12.385-1.8617 1.056-3.7928 1.985-5.78 2.781l-1.347-3.78c-.826-2.086-4.911-12.646-6.214-14.254-.565-.739-1.26-1.564-12.385-1.478zm440.8181 100.123c-.232.055-.443.176-.608.348-.174.174-15.6 16.339-29.072 22.9-4.129 2.043-8.127 3.781-11.647 5.3-9.908 4.345-17.078 7.474-19.12 13.037-1 2.694-.305 4.345.478 5.3 1.347 1.608 3.954 2.217 7.17 1.652 1.173-.218 2.26-.435 3.216-.652 3.607-.782 5.041-1 5.692.174.172.328.262.694.262 1.064 0 .371-.09.737-.262 1.065-1 2.434-4.606 5-9.256 6.431-1.477.479-3 .87-4.476 1.3-6.518 1.825-12.732 3.52-13.123 8.431-.117.938.024 1.891.406 2.756.383.864.993 1.609 1.766 2.154-5.032 1.37-10.367 1.127-15.253-.695-14.079-4.911-32.548-28.333-32.722-28.551-.044-.087-6.084-7.3-10.777-13.558-6.823-9-11.168-9.3-12.385-9.213-.682.062-1.334.308-1.885.714-.552.405-.982.954-1.244 1.586-2.086 4.259 3 11.429 7.909 18.339 2.26 3.216 5.388 7.605 5.258 8.821-.13 1-.434 2.695-.826 4.694-1.607 8.169-2.824 15.166-1 18.382.92 1.877 2.331 3.469 4.085 4.606l-6.475 25.422c-58.057 9.517-99.254 5.823-123.589 1.086-20.164-3.954-33.679-9.6-38.72-12.428l4.393-36.275c1.285.778 2.755 1.199 4.258 1.217h.348c5.779 0 8.083-8.344 9.864-21.772 1.086-9.388 1.434-18.847 1.043-28.29.007-.075-.008-.15-.043-.217v-.043c0-.044-.044-.131-.044-.174s0-.044-.043-.087-.043-.087-.087-.174c0-.006-.001-.011-.003-.017-.002-.005-.005-.01-.009-.014s-.009-.007-.015-.009c-.005-.002-.01-.003-.016-.003-.044-.044-.087-.131-.131-.174l-.043-.044-.131-.13-.043-.043c-.059-.055-.137-.086-.217-.087h-.044c-.051-.035-.113-.051-.174-.044h-.3c-.075-.007-.151.009-.217.044-.087 0-.13.043-.174.043-.006 0-.011.001-.017.003-.005.002-.01.005-.014.009s-.007.009-.009.014c-.002.006-.003.011-.003.017-.044.044-.087.044-.174.087-.006 0-.012.001-.017.003-.006.002-.01.005-.015.01-.004.004-.007.009-.009.014s-.003.011-.003.017c-.043.043-.13.087-.173.13l-4.781 4.433c-8.734 8.43-28.681 26.638-47.758 35.938-24.683 11.994-38.632 2.52-51.9731-15.384-1.695-2.259-3.607-5.171-5.649-8.517 1.7737-.105 3.4456-.864 4.693-2.129.5995-.633 1.0293-1.407 1.2496-2.25.2203-.844.2239-1.729.0104-2.574-.739-3-3.781-5.866-6.692-8.648-2.521-2.39-5.606-5.345-4.867-6.605.0549-.098.1296-.183.2193-.25.0897-.068.1924-.116.3017-.141 1.956-.435 6.736 2.781 9.908 4.91 1.7609 1.333 3.6715 2.457 5.693 3.347 1.0483.238 2.1404.198 3.169-.114 1.0285-.313 1.9581-.887 2.6971-1.668.859-.755 1.504-1.723 1.87-2.806s.441-2.244.216-3.365c-1.352-5.388-9.8271-10.513-22.6901-18.338-12.776-7.779-25.769-17.166-25.9-17.252-.1464-.098-.3079-.172-.478-.218-4.91-10.125-8.734-18.3-10.429-21.945 3.781-.522 9.778-3.781 14.732-6.823 8.3253-5.109 16.0006-11.208 22.858-18.164l47.0191 61.1c.127.165.291.299.478.391 1.13 1.738 3.476 5.258 6.171 8.778 5.345 6.91 9.43 10.3 12.428 10.386h.217c.876.077 1.757-.093 2.541-.493.784-.399 1.439-1.011 1.892-1.766 1.738-3.086-.3-8.257-1.564-10.256-.435-.695-1.043-1.434-1.652-2.26-2.086-2.651-4.693-5.953-3.607-9.43l.087-.3c.913-2.825 2.695-8.6-5.519-14.558 4.854-8.096 10.378-15.771 16.514-22.945 10.018-11.654 22.135-21.324 35.721-28.507 10.451-5.534 21.671-9.474 33.287-11.689-.174 3.172-.478 10.6-.609 18.077-.347 20.642 1.043 21.25 2.173 21.728 1.565.652 4.3.044 8.692-1.043 2.042-.478 5.258-1.3 6.518-1.216-.746 2.127-1.661 4.19-2.738 6.17-2.651 5.345-4.215 8.735-3.433 10.647 1.478 3.52 21.554 14.167 36.329 14.167.959.009 1.918-.049 2.869-.174l-.7 7.214c-.049.11-.079.227-.087.347l-.26 2.781c-.421 3.233-1.33 6.383-2.695 9.344-1.109 2.348-1.841 4.856-2.172 7.431-.299 3.741-.154 7.504.434 11.211.607 4.143.84 8.332.695 12.516l-.434 4.606c-.289 2.745-.857 5.453-1.695 8.083-.782 2.042-1.347 3.346-1.782 4.3-.932 1.875-1.492 3.912-1.651 6-.125 2.17.124 4.346.739 6.431.886 3.256 1.267 6.628 1.13 10-.455 2.675-1.183 5.296-2.173 7.822-1.391 3.39-1.043 7.388-.739 11.6.277 2.641.377 5.298.3 7.952l-.261 2.825c-.007.146.008.293.044.435l-2.434 24.552c-.025.344.085.684.305.95s.534.436.877.476h.13c.321-.009.628-.132.866-.347s.392-.508.434-.826l8.039-84.087.565-5.867v-.043c.044-.131.087-.261.13-.435.044-.608.131-1.173.174-1.738l2.434-26.813 2.52-26.769c.478.044 1.087.044 1.825.044 4.868 0 14.819-1 26.118-7.779 1.052-.632 1.874-1.586 2.343-2.72s.562-2.389.264-3.58c-1.087-4.432-.869-5.953-.782-6.344 1.11-.128 2.23-.157 3.346-.087 4.345 0 10.342 0 12.689-3.086 2.607-3.433 8.952-26.464 10.734-33.07 15.354 7.48 28.881 18.234 39.631 31.506 7.909 9.734 14.3 23.727 18.6 34.852-4.65 3.215-6.388 10.994-5.259 16.991.739 3.781-1.955 6.562-4.78 9.56-1.401 1.371-2.654 2.886-3.737 4.52-1.869 3.085-2.173 6.3-.782 8.387.544.744 1.268 1.338 2.104 1.725.836.388 1.757.557 2.676.491.538-.004 1.076-.047 1.608-.13 6.214-.956 17.339-12.95 18.816-14.558l55.276-47.367c1.043 2.346 4.3 8.952 11.734 17.121 6.909 7.6 13.428 11.038 16.339 12.255-2.038 2.693-6.992 9.82-13.25 18.598zm9-23.988c-3.792-2.476-7.24-5.442-10.255-8.821-8.518-9.387-11.386-16.731-11.559-17.165l5.91-5.041c3.136 5.239 7.031 9.984 11.559 14.08 5.345 5 8.735 7 10.82 7.735zm32.153-26.072c-.278.016-.557-.013-.826-.087-6.909-1.782-15.557-3.868-17.426-3.433-3 .652-8.865 9.908-11.776 14.775-1.3-1-2.868-2.3-4.693-4-7-6.562-10.3-11.994-11.342-13.949 1.912-1.782 7.691-6.866 13.688-9.039 3.234-1.142 6.678-1.567 10.092-1.245 3.415.323 6.718 1.385 9.681 3.113 1.739 1.176 3.409 2.453 5 3.824 4.563 3.738 7.692 6.171 9.865 6.345.7.044 1.955.087 3.563.13 4.259.131 14.167.392 15.992 1.608.497.314.937.711 1.3 1.174z" fill="#1a1a1a"/><path d="m274.907 333.111 10.907 56.363s12.994 36.633 14.384 36.633 26.9 13.906 26.9 13.906l40.371-1.868 7.431-1.869s7.866-2.564 7.17-16.687c-.695-14.167-9.517-52.408-9.517-52.408l14.167-2.086s-5.562-18.078-12.081-26.2c-4.67-5.599-9.881-10.724-15.557-15.3 0 0-31.332-.478-45.455 1.869-14.127 2.302-38.72 7.647-38.72 7.647z" fill="#fece2f"/><path d="m382.069 419.589c-.13-2.955-.652-7-1.347-11.516-8.821-8.43-22.858-9.778-34.852-13.6-5.3-1.695-11.124-4.78-12.211-10.255-.956-4.65 2.086-9.387 6.128-11.907s8.865-3.3 13.558-4.042c-5.855-.191-11.572-1.831-16.638-4.773-5.067-2.943-9.324-7.096-12.391-12.088-3.372-5.607-4.491-12.286-3.129-18.686.609-2.651 2.13-5.562 3.042-8.474-4 .261-7.648.652-10.6 1.13-14.167 2.3-38.719 7.648-38.719 7.648l10.907 56.363s12.991 36.631 14.383 36.631 26.9 13.906 26.9 13.906l40.371-1.868 7.431-1.869c-.046.13 7.863-2.433 7.167-16.6z" fill="#fff"/><path d="m319.493 366.008c-1.069-.069-2.093-.453-2.943-1.102-.851-.65-1.491-1.537-1.838-2.549-.489-1.234-.55-2.595-.173-3.867.178-.615.494-1.18.923-1.655.429-.474.96-.844 1.554-1.083.605-.215 1.251-.292 1.891-.224.639.067 1.254.278 1.802.615 1.143.689 2.016 1.747 2.477 3 1.043 2.782 0 5.737-2.346 6.649-.435.142-.89.215-1.347.216zm-1-7.953c-.163.008-.323.037-.478.087-.23.11-.434.268-.599.463-.164.194-.286.422-.357.667-.216.716-.17 1.486.13 2.173.522 1.39 1.826 2.259 2.825 1.868s1.347-1.868.826-3.259c-.248-.7-.722-1.296-1.347-1.695-.305-.178-.648-.282-1-.304z" fill="#1a1a1a"/><path d="m372.379 360.183c-1.068-.068-2.092-.451-2.943-1.101s-1.49-1.536-1.838-2.549c-1.042-2.781 0-5.736 2.347-6.649s5.128.609 6.171 3.39 0 5.736-2.347 6.649c-.442.174-.914.262-1.39.26zm-1-7.909c-.163.004-.324.034-.478.087-1 .391-1.347 1.869-.826 3.26s1.826 2.259 2.825 1.868 1.347-1.868.826-3.259c-.169-.513-.479-.968-.894-1.313-.415-.346-.918-.569-1.453-.643z" fill="#1a1a1a"/><path d="m388.327 365.311c-2.748-9.344-6.941-18.2-12.427-26.247-3.513-5.085-7.612-9.739-12.213-13.865-2.327-2.014-5.309-3.111-8.387-3.085-7.518.087-22.293.391-37.024 1.695-15.214 1.393-30.194 4.692-44.586 9.821-.005 0-.011.001-.017.003-.005.002-.01.005-.014.009s-.007.009-.009.014c-.003.005-.004.011-.004.017-.043.044-.13.044-.173.087s-.087.044-.087.087c-.044.044-.087.044-.087.087-.044.043-.044.087-.087.087l-.087.087c-.043.043-.043.087-.087.13 0 .044-.043.044-.043.087s-.044.087-.044.13-.043.087-.043.131c0 .087-.044.13-.044.217v.261c.044.174 2.651 16.209 6.953 35.156 5.346 23.466 10.778 40.848 16.166 51.756.043.13.13.217.174.348l.261.521c.083.197.183.386.3.565.049.12.107.236.174.348.176.295.336.599.478.912.347.652.695 1.261 1.043 1.869.043.087.13.174.173.261.305.521.609 1.043.956 1.564.044.043.044.087.087.13 9.952 15.645 21.859 18.209 30.42 18.209 2.135-.022 4.267-.153 6.388-.392.347-.043.651-.043.956-.086l.695-.044c6.909-.608 25.031-2.26 35.721-7.692h.043c.299-.143.589-.302.869-.478.044-.043.087-.043.131-.087h.043c2.1-1.102 3.949-2.626 5.432-4.476 3.694-5 3.607-17.817-.217-37.98-2.26-11.907-5.215-23.032-6.3-27.03l13.471-1.434c.19-.023.373-.084.538-.182.165-.097.307-.228.418-.383.1-.169.16-.358.175-.554.016-.195-.013-.392-.085-.574zm-10.082 66.531c-.839 1.086-1.853 2.026-3 2.782-.36-1.883-1.376-3.577-2.868-4.781-2.608-2.085-7.04-3.606-21.642-.869-10.864 2.043-18.816-1.3-23.683-10.038-1.339-2.64-2.529-5.353-3.563-8.126-3.216-8.127-6.823-17.339-14.254-17.339h-.3c-4.737.174-6.084 3.911-7.17 6.909-.956 2.608-1.608 4.216-3.347 4.433h-.26c-4.433 0-10.039-14.558-11.907-19.468-5.78-21.989-9.691-44.369-10.56-49.584 1.782-.434 5.519-.956 7.648 1.26l20.338 42.24c.112.217.279.4.486.529.206.13.444.202.687.209h.13l67.444-6.648c1.391 5.345 3.433 13.688 5.128 22.51 4.604 24.248 2.909 32.938.693 35.981zm-5.953-65.922c-.187-.051-.387-.036-.565.043-.044 0-.087.044-.131.044l-63.619 6.779c-2.955-5.128-19.729-33.983-22.641-37.329-.79-.847-1.754-1.514-2.825-1.956 11.742-3.549 23.812-5.907 36.026-7.039 14.644-1.3 29.332-1.608 36.807-1.7 2.442-.044 4.812.824 6.649 2.433 4.457 3.964 8.412 8.459 11.776 13.385 4.988 7.387 8.894 15.45 11.6 23.944z" fill="#1a1a1a"/></g></svg></g><!--ITEM: Illustration component 5--><g transform="translate(434.0 2684.0) rotate(0.0 1117.0 33.0)  scale(5.065759637188209 5.076923076923077)"><svg width="441.0" height="13.0" viewBox="0.0 0.0 441.0 13.0"><clipPath id="a-i5"><path d="m0 0h440.592v12.255h-440.592z" fill="#000000"/></clipPath><g clip-path="url(#a-i5)" fill="#1a1a1a"><path d="m206.338 7.60547h-144.338c-.2652 0-.5196-.10536-.7071-.29289-.1875-.18754-.2929-.44189-.2929-.70711s.1054-.51957.2929-.70711c.1875-.18753.4419-.29289.7071-.29289h144.34c.265 0 .52.10536.707.29289.188.18754.293.44189.293.70711s-.105.51957-.293.70711c-.187.18753-.442.29289-.707.29289z"/><path d="m46.3379 7.60547h-44.938c-.26521 0-.519568-.10536-.707104-.29289-.187537-.18754-.292894-.44189-.292894-.70711s.105357-.51957.292894-.70711c.187536-.18753.441894-.29289.707104-.29289h44.938c.2652 0 .5196.10536.7071.29289.1875.18754.2929.44189.2929.70711s-.1054.51957-.2929.70711c-.1875.18753-.4419.29289-.7071.29289z"/><path d="m340.551 7.60547h-111.4c-.265 0-.52-.10536-.707-.29289-.188-.18754-.293-.44189-.293-.70711s.105-.51957.293-.70711c.187-.18753.442-.29289.707-.29289h111.4c.265 0 .519.10536.707.29289.188.18754.293.44189.293.70711s-.105.51957-.293.70711c-.188.18753-.442.29289-.707.29289z"/><path d="m401.955 6.65137h-41.021c-.265 0-.519-.10536-.707-.2929-.188-.18753-.293-.44189-.293-.7071 0-.26522.105-.51957.293-.70711s.442-.29289.707-.29289h41.021c.265 0 .52.10535.707.29289.188.18754.293.44189.293.70711 0 .26521-.105.51957-.293.7071-.187.18754-.442.2929-.707.2929z"/><path d="m439.189 6.65137h-16.851c-.265 0-.52-.10536-.707-.2929-.188-.18753-.293-.44189-.293-.7071 0-.26522.105-.51957.293-.70711.187-.18754.442-.29289.707-.29289h16.851c.265 0 .519.10535.707.29289s.293.44189.293.70711c0 .26521-.105.51957-.293.7071-.188.18754-.442.2929-.707.2929z"/></g></svg></g><!--ITEM: Illustration component 6--><g transform="translate(2266.0 2056.0) rotate(0.0 207.0 332.0)  scale(2.670967741935484 2.6774193548387095)"><svg width="155.0" height="248.0" viewBox="0.0 0.0 155.0 248.0"><clipPath id="a-i6"><path d="m0 0h154.493v247.22h-154.493z" fill="#000000"/></clipPath><g clip-path="url(#a-i6)"><path d="m62.923 245.719h-51.37c-.96-32.49-2.84001-77.77-6.08001-93.19-5.48000457-26.129 16.97001-60.52 35.61001-3.649 2.65 8.08 4.98 15.619 7.04 22.639 5.08 17.381 8.47 31.62 10.72 43.14v.011c2.1061 10.238 3.4696 20.615 4.08 31.049z" fill="#fece2f"/><path d="m64.492 247.22h-54.392l-.043-1.456c-1.00602-34.048-2.87202-77.809-6.04902-92.926-3.267997-15.569 2.944-33.37 12.53802-35.938 5.365-1.438 15.877.745 25.962 31.516 2.5 7.628 4.876 15.26 7.054 22.684 4.6 15.743 8.22 30.3 10.753 43.275l.028.154c2.0969 10.265 3.4601 20.667 4.079 31.126zm-51.483-3h48.335c-.6829-9.831-2.0104-19.608-3.974-29.265l-.027-.15c-2.515-12.848-6.1-27.268-10.66-42.865-2.169-7.392-4.533-14.994-7.025-22.593-6.8-20.759-14.947-31.526-22.336-29.551-8.05802 2.158-13.30002 18.522-10.38102 32.426 3.17602 15.115 5.04802 58.045 6.06802 91.998z" fill="#1a1a1a"/><path d="m37.924 245.905c-1.693-13.6-6.159-37.378-10.477-60.376-5.268-28.059-10.247-54.561-10.247-62.529v-3.032l2.41 1.839c5.63 4.3 11.715 20.794 18.088 49.03 4.94 21.886 8.387 43.569 8.764 45.969.054.327.077.507.077.507l-2.977.374c0-.015-.02-.154-.062-.4-.377-2.4-3.8101-24-8.7281-45.788-5.992-26.547-10.8-38.751-14.281-44.141 1.16 11.062 5.5941 34.677 9.9001 57.619 4.326 23.043 8.8 46.872 10.505 60.559z" fill="#1a1a1a"/><path d="m22.892 245.888c-3.424-30.467-11.254-103.188-10.015-120.426l2.992.215c-1.255 17.465 7.34 96.17 10 119.875z" fill="#1a1a1a"/><path d="m29.151 123.719s-3.89 3.611-14.78 1.855c-10.89003-1.756-12.35403-9.266-12.53003-10.3-1.400004-8.314 1.757-10.538 3.513-8.782s4.567 13 6.67503 6.323c1.379-4.367.688-18.233 1.58-22.395.0587-.2805.2021-.5361.4107-.7324.2087-.1964.4725-.324.756-.3657.2835-.0416.5729.0047.8292.1328.2563.128.4671.3316.6041.5833l7.241 15.532c.1487.318.3783.591.6658.791.2875.201.6228.323.9722.353.3494.031.7006-.031 1.0185-.179.3178-.149.5911-.378.7925-.665 2.038-2.952 5.064-6.021 5.5.972.752 11.877-3.248 16.877-3.248 16.877z" fill="#fff"/><path d="m100.153 70.719-3.01 68.53-3.95 89.881v.02l-.73 16.569h-49.93c.72-7.839 1.57-17.62 2.45-28.68 1.08-13.65 2.2-29.24 3.14-45.52 2.13-37.309 3.3-78.17.91-107.3-5.62-68.39004 56.12-56.50004 51.12 6.5z" fill="#fece2f"/><path d="m93.9 247.22h-53.011l.15-1.637c.823-8.962 1.67-18.873 2.449-28.663 1.256-15.882 2.312-31.186 3.137-45.488 2.641-46.256 2.948-82.287.913-107.089-1.812-22.052 3.274-38.471 13.955-45.043 6.482-3.993 14.295-3.775 21.436.593 10.492 6.419 20.917 23.166 18.721 50.922zm-49.723-3h46.851l7.63-173.62c2.1-26.417-7.559-42.194-17.294-48.15-6.143-3.759-12.812-3.978-18.3-.6-4.58 2.822-14.974 12.585-12.536 42.25 2.046 24.941 1.741 61.112-.908 107.508-.826 14.324-1.884 29.649-3.141 45.552-.734 9.207-1.526 18.524-2.303 27.06z" fill="#1a1a1a"/><path d="m79.134 23.9119s-1.873 2.971-12.763 1.8-12.354-6.185-12.53-6.879c-1.405-5.55 1.757-7.035 3.513-5.863s4.567 8.677 6.675 4.221c1.379-2.915.688-12.17195 1.58-14.94995.272-.846 1.968-1.011 2.6-.255l8.817 12.62395s11.593-7.97395 7.374-1.41c-4.219 6.564-5.266 10.712-5.266 10.712z" fill="#fff"/><g fill="#1a1a1a"><path d="m71.021 27.481c-1.6075-.0077-3.2134-.1011-4.811-.28-11.253-1.211-13.425-6.431-13.823-8-1.221-4.824.692-6.79 1.572-7.412.6142-.4404 1.3482-.6826 2.1039-.6943.7556-.0116 1.4967.208 2.1241.6293.9067.766 1.6705 1.6865 2.256 2.719.5613.9222 1.2263 1.7771 1.982 2.548.0946-.14.1775-.2875.248-.441.638-1.349.765-5.037.867-8.00002-.0391-2.27284.1759-4.54293.641-6.768.1639-.44948.4464-.846222.8176-1.148156.3711-.301934.817-.497807 1.2904-.5668483.5504-.124009 1.1237-.101247 1.6625.0660063.5387.167254 1.0241.473129 1.4075.886998l.079.1 7.974 11.41802c7.019-4.61402 8.228-3.43802 8.826-2.86302 1.364 1.32202.007 3.43502-.572 4.33902-4 6.235-5.069 10.232-5.079 10.271l-.059.227-.125.2c-.332.526-2.174 2.769-9.382 2.769zm-14.9-13.381c-.1551.0011-.3059.0511-.431.143-.573.4-1.02 1.754-.395 4.225.121.478 1.466 4.7 11.236 5.756 8.084.869 10.692-.642 11.266-1.082 1.2397-3.6327 2.9392-7.0918 5.057-10.293-1.7202.8952-3.3828 1.8972-4.978 3l-1.227.842-9.549-13.68102c-.0475-.00839-.0957-.01174-.144-.01-.2736 1.87064-.4133 3.75845-.418 5.649-.123 3.57502-.25 7.27202-1.153 9.18102-.1954.5856-.549 1.1058-1.0216 1.5031-.4726.3972-1.0458.6561-1.6564.7479-2 .146-3.4-1.944-4.755-3.97-.411-.6805-.8905-1.3171-1.431-1.9-.1195-.0755-.2586-.1141-.4-.111z"/><path d="m55.47 245.982-2.954-.525c.211-1.189 21.022-119.969 12.36-219.617l2.989-.26c8.697 100.05-12.183 219.21-12.395 220.402z"/><path d="m86.651 194.742-3-.045c.013-.819 1.2-82.633-1-139.92-.972-25.289-3.878-33.456-3.907-33.535l2.811-1.049c.126.336 3.1 8.525 4.094 34.469 2.208 57.367 1.014 139.26 1.002 140.08z"/><path d="m19.933 127.551c-1.9436-.012-3.8831-.179-5.8-.5-11.565-1.862-13.5-9.932-13.771-11.532-.928-5.489-.048-9.505 2.353-10.745.60317-.311 1.29181-.416 1.9602-.298s1.2796.452 1.7398.951c.91786 1.179 1.64381 2.495 2.151 3.9.52493 1.248 1.13227 2.46 1.818 3.628.065-.158.137-.357.214-.6.707-2.236.831-7.662.941-12.45-.0382-3.2792.1623-6.5569.6-9.807.1228-.5783.4195-1.1052.8502-1.5102s.9748-.6686 1.5596-.7557c.5847-.087 1.1821.0068 1.7121.2688.5299.262.9672.6797 1.2531 1.1971l.05.1 7.246 15.532c.0362.082.0939.152.167.203.0732.051.1589.082.248.088.0853.009.1715-.005.2491-.042.0776-.036.1436-.093.1909-.165 1.34-1.941 3.376-4.45 5.582-3.839 2.1.583 2.52 3.458 2.653 5.57.776 12.317-3.4 17.689-3.577 17.912l-.152.162c-.146.136-3.045 2.732-10.238 2.732zm-15.813-20.124c-.13728.069-.25185.176-.33.308-.324.447-1.313 2.294-.47 7.284.211 1.245 1.745 7.535 11.289 9.075 8.988 1.448 12.814-.959 13.445-1.417.534-.788 3.488-5.645 2.852-15.745-.0038-.94-.173-1.871-.5-2.752-.9114.693-1.6813 1.555-2.268 2.538-.3515.505-.8298.908-1.3867 1.169s-1.1728.371-1.7856.318-1.2009-.266-1.7051-.618c-.5041-.353-.9065-.832-1.1666-1.389l-7.075-15.169c-.3261 2.9711-.4867 5.9581-.481 8.947-.12 5.233-.244 10.642-1.079 13.286-.262.83-.958 3.035-2.814 3.141-2.147.128-3.383-2.641-4.817-5.845-.41578-1.049-.92938-2.057-1.534-3.01-.04667-.055-.10659-.096-.174-.121z"/></g><path d="m147.293 122.42c-4.42 21.259-12.41 100.049-14.72 123.3h-51.62c0-17.44 1.97-55.91 16.19-106.47 1.75-6.267 3.703-12.713 5.86-19.34 9.21-28.3 21.56-34.3001 30.98-29.9601 9.517 4.379 16.04 19.3291 13.31 32.4701z" fill="#fece2f"/><path d="m133.931 247.22h-54.478v-1.5c0-18.342 2.111-56.617 16.246-106.877 1.772-6.348 3.75-12.876 5.878-19.4 5.435-16.7 12.6-27.4 20.727-30.957 1.936-.8777 4.039-1.3233 6.165-1.3061 2.125.0173 4.221.4971 6.142 1.4061 10.329 4.752 16.942 20.705 14.15 34.137-4.372 21.034-12.353 99.573-14.695 123.143zm-51.473-3h48.757c2.5-25.118 10.287-101.315 14.609-122.106 2.533-12.188-3.293-26.582-12.468-30.8-1.535-.7363-3.214-1.1248-4.917-1.138-1.702-.0131-3.387.3495-4.933 1.062-5.1 2.232-12.555 9.1-19.077 29.138-2.115 6.483-4.08 12.97-5.841 19.279-13.664 48.579-16.014 85.845-16.13 104.565z" fill="#1a1a1a"/><path d="m92.4889 245.826-2.992-.213c.8-11.136 15.5631-119.6 43.4541-156.794l2.4 1.8c-14.1 18.8-24.674 56.966-31.065 85.676-7.1641 32.187-11.2861 62.368-11.7971 69.531z" fill="#1a1a1a"/><path d="m117.493 245.72h-3c0-37.785 11.11-75.061 11.222-75.433.108-.4 11.9-44.055 9.94-72.464l2.993-.207c1.994 28.919-9.929 73.056-10.05 73.5-.122.404-11.105 37.274-11.105 74.604z" fill="#1a1a1a"/><path d="m146.8 94.246s-1.874 2.97-12.764 1.8-12.354-6.185-12.529-6.879c-1.405-5.55 1.756-7.035 3.513-5.862s4.567 8.677 6.674 4.221c1.379-2.916.688-12.173 1.581-14.95.272-.846 1.968-1.012 2.6-.256l8.818 12.626s11.593-7.973 7.377-1.407-5.27 10.707-5.27 10.707z" fill="#fff"/><path d="m138.686 97.815c-1.607-.0077-3.212-.1011-4.809-.28-11.253-1.212-13.425-6.432-13.823-8-1.222-4.825.692-6.791 1.572-7.412.614-.4409 1.348-.6834 2.104-.6952.755-.0118 1.497.2077 2.124.6292.906.766 1.67 1.6866 2.255 2.719.562.9223 1.227 1.7775 1.983 2.5489.094-.14.177-.2875.247-.4409.638-1.35.765-5.038.867-8-.038-2.2726.177-4.5423.642-6.7671.164-.4492.447-.8456.818-1.1472.372-.3016.818-.4971 1.291-.5657.55-.1231 1.123-.0997 1.662.0679.538.1675 1.024.4734 1.407.8871l.079.1 7.973 11.417c7.02-4.618 8.229-3.447 8.826-2.868 1.365 1.321.008 3.435-.572 4.339-4 6.235-5.068 10.233-5.078 10.272l-.059.227-.126.1999c-.332.526-2.169 2.7691-9.383 2.7691zm-14.9-13.387c-.155.0012-.307.0512-.432.143-.573.4-1.02 1.7539-.394 4.2259.121.478 1.465 4.7001 11.236 5.7561 8.082.87 10.692-.642 11.265-1.082 1.24-3.6329 2.94-7.0923 5.058-10.294-1.72.8952-3.383 1.8972-4.978 3l-1.227.8419-9.554-13.679c-.046-.0103-.093-.013-.139-.0079-.274 1.8703-.413 3.7577-.418 5.648-.123 3.575-.251 7.272-1.154 9.182-.195.5856-.549 1.1058-1.021 1.5031s-1.046.6561-1.656.7479c-1.993.139-3.4-1.945-4.756-3.971-.411-.6805-.891-1.3171-1.431-1.9-.118-.0761-.256-.1157-.397-.114z" fill="#1a1a1a"/></g></svg></g><!--ITEM: Illustration component 7--><g transform="translate(2386.0 1812.0) rotate(0.0 -574.0 5.0)  scale(-5.147982062780269 5.0)"><svg width="223.0" height="2.0" viewBox="0.0 0.0 223.0 2.0"><clipPath id="a-i7"><path d="m0 0h222.992v2h-222.992z" fill="#000000"/></clipPath><g clip-path="url(#a-i7)" fill="#1a1a1a"><path d="m186.869 2h-185.869c-.265216 0-.51957-.10536-.707107-.29289-.187536-.18754-.292893-.44189-.292893-.70711 0-.265216.105357-.51957.292893-.707107.187537-.187536.441891-.292893.707107-.292893h185.869c.265 0 .52.105357.707.292893.188.187537.293.441891.293.707107 0 .26522-.105.51957-.293.70711-.187.18753-.442.29289-.707.29289z"/><path d="m221.992 2h-16.435c-.265 0-.519-.10536-.707-.29289-.188-.18754-.293-.44189-.293-.70711 0-.265216.105-.51957.293-.707107.188-.187536.442-.292893.707-.292893h16.435c.265 0 .52.105357.707.292893.188.187537.293.441891.293.707107 0 .26522-.105.51957-.293.70711-.187.18753-.442.29289-.707.29289z"/></g></svg></g></svg>